<?xml version="1.0" standalone="no"?>
<!DOCTYPE svg PUBLIC "-//W3C//DTD SVG 20010904//EN"
 "http://www.w3.org/TR/2001/REC-SVG-20010904/DTD/svg10.dtd">
<svg version="1.0" xmlns="http://www.w3.org/2000/svg"
 width="500.000000pt" height="500.000000pt" viewBox="0 0 500.000000 500.000000"
 preserveAspectRatio="xMidYMid meet">

<g transform="translate(0.000000,500.000000) scale(0.100000,-0.100000)"
fill="#000000" stroke="none">
<path d="M3579 4795 c-49 -18 -116 -53 -123 -64 -3 -5 18 4 47 19 69 37 155
54 247 47 44 -3 65 -2 50 3 -40 13 -182 10 -221 -5z"/>
<path d="M3895 4760 c38 -17 72 -35 75 -39 3 -4 21 -18 41 -32 47 -31 120
-112 148 -164 13 -24 19 -30 15 -15 -27 102 -199 253 -314 274 -25 5 -14 -3
35 -24z"/>
<path d="M3410 4705 c-7 -8 -8 -15 -2 -15 5 0 15 7 22 15 7 8 8 15 2 15 -5 0
-15 -7 -22 -15z"/>
<path d="M1068 4666 c-12 -27 -5 -56 12 -56 6 0 8 5 5 10 -12 20 7 50 38 59
l32 9 -38 1 c-30 1 -39 -4 -49 -23z"/>
<path d="M1100 4631 c0 -34 12 -45 40 -36 14 4 20 15 20 36 0 26 -3 29 -30 29
-27 0 -30 -3 -30 -29z"/>
<path d="M3740 4634 c14 -36 13 -39 -8 -21 -10 10 -22 14 -26 10 -4 -4 -11 -1
-16 7 -7 10 -10 11 -10 3 0 -7 -9 -13 -19 -13 -11 0 -22 6 -24 13 -3 6 -6 1
-7 -13 -1 -22 -2 -23 -13 -8 -16 20 -46 19 -71 -4 -23 -21 -53 -23 -58 -6 -3
9 -9 8 -21 -4 -10 -9 -26 -20 -37 -23 -11 -3 -20 -11 -20 -17 0 -6 -7 -5 -17
3 -10 8 -14 9 -10 2 4 -6 3 -14 -3 -18 -5 -3 -10 -11 -10 -16 0 -6 5 -7 10 -4
6 3 10 1 10 -4 0 -6 -4 -11 -10 -11 -5 0 -10 -7 -10 -15 0 -11 -12 -15 -42
-16 -40 -1 -41 -2 -13 -9 l30 -8 -29 -1 c-20 -1 -27 -5 -23 -16 4 -8 1 -18 -5
-21 -8 -5 -5 -10 8 -15 16 -7 16 -8 -6 -8 -21 -1 -26 -6 -26 -26 0 -15 6 -25
14 -25 12 0 12 -3 2 -15 -7 -8 -10 -21 -7 -29 3 -8 -2 -18 -11 -22 -14 -6 -11
-9 13 -14 24 -6 25 -8 8 -9 -31 -1 -29 -21 2 -21 14 0 25 -4 25 -10 0 -5 -6
-7 -14 -4 -8 3 -25 0 -38 -7 l-23 -13 30 -7 c25 -5 26 -7 7 -8 -19 -1 -22 -5
-17 -22 5 -13 2 -25 -6 -31 -10 -6 -4 -7 17 -3 24 4 31 2 31 -10 0 -8 -10 -16
-21 -16 -12 -1 -6 -5 14 -9 29 -6 31 -8 10 -10 -21 -2 -19 -4 15 -15 22 -8 35
-14 28 -14 -7 -1 -10 -8 -7 -16 5 -12 9 -13 21 -4 11 10 13 9 11 -2 -2 -8 2
-13 9 -12 6 1 14 -10 18 -26 5 -24 11 -28 40 -28 19 0 35 5 35 11 0 6 7 0 16
-13 11 -15 23 -21 36 -18 15 4 18 1 16 -16 -3 -23 5 -24 87 -14 12 1 19 -3 17
-11 -4 -21 40 -10 64 16 18 18 23 20 27 8 7 -17 -8 -30 -23 -21 -6 4 -9 -2 -7
-14 4 -25 17 -40 17 -20 0 11 2 11 10 -1 8 -13 10 -13 10 1 0 9 7 22 15 29 12
10 15 10 15 -4 0 -19 16 -21 23 -3 4 10 6 10 6 0 1 -7 8 -13 17 -13 14 0 15 2
3 17 -12 15 -12 16 4 10 9 -3 17 -3 17 2 0 4 6 8 14 8 8 0 12 -6 8 -15 -3 -10
-1 -13 6 -8 7 4 12 15 13 24 0 12 2 13 6 3 5 -11 7 -11 14 0 8 12 11 11 19 -1
8 -12 10 -10 10 9 0 19 3 21 15 11 8 -6 19 -9 25 -5 5 3 10 1 10 -5 0 -6 14 2
31 19 17 17 34 31 39 31 4 0 10 13 13 29 6 29 42 49 51 27 2 -6 5 -3 5 7 1 9
6 17 13 17 6 0 9 3 5 6 -8 8 18 34 33 34 6 0 8 5 5 10 -3 6 0 10 7 11 7 0 4 4
-7 9 -19 8 -19 9 -1 9 20 1 20 1 0 16 -10 8 -14 15 -9 15 14 0 17 47 4 56 -8
4 -7 9 2 15 10 6 8 9 -8 9 -12 0 -25 5 -29 12 -5 8 -2 9 9 5 10 -3 25 -3 34 0
14 6 12 9 -12 19 -26 12 -27 13 -7 14 24 0 32 34 10 43 -10 4 -10 8 -2 14 30
21 -25 154 -69 169 -10 3 -16 8 -13 11 5 5 -86 83 -97 83 -3 0 -8 -8 -10 -17
-4 -17 -5 -17 -6 0 -1 19 -17 23 -23 5 -3 -7 -11 -9 -24 -3 -10 4 -25 7 -33 6
-8 -1 -10 2 -5 10 4 7 3 10 -4 5 -6 -3 -16 2 -22 11 -8 15 -9 14 -4 -8 4 -19
1 -28 -10 -32 -9 -4 -16 -2 -16 3 0 6 5 10 12 10 19 0 2 11 -26 16 -14 2 -26
0 -26 -6 0 -19 -28 -10 -33 10 -3 11 -10 20 -16 20 -7 0 -7 -8 -1 -26z m-250
-64 c0 -5 -5 -10 -11 -10 -5 0 -7 5 -4 10 3 6 8 10 11 10 2 0 4 -4 4 -10z
m-121 -214 c-2 -2 -17 -6 -34 -10 -22 -5 -26 -4 -15 4 14 9 59 15 49 6z m4
-83 c-7 -2 -19 -2 -25 0 -7 3 -2 5 12 5 14 0 19 -2 13 -5z m177 -293 c0 -5 -5
-10 -11 -10 -5 0 -7 5 -4 10 3 6 8 10 11 10 2 0 4 -4 4 -10z m126 -57 c-11
-11 -17 4 -9 23 7 18 8 18 11 1 2 -10 1 -21 -2 -24z m84 17 c0 -5 -2 -10 -4
-10 -3 0 -8 5 -11 10 -3 6 -1 10 4 10 6 0 11 -4 11 -10z"/>
<path d="M1181 4624 c-2 -45 -61 -70 -88 -36 -12 15 -12 14 -2 -10 7 -15 15
-25 20 -22 4 2 4 -9 -1 -25 -4 -16 -8 -131 -8 -256 0 -182 -2 -229 -13 -236
-18 -11 -117 -9 -147 2 -26 10 -26 12 -9 144 3 17 2 21 0 10 -8 -34 -22 -39
-29 -10 -4 17 -2 30 6 35 9 6 9 9 0 15 -22 13 -33 -11 -22 -47 16 -51 23 -112
14 -125 -7 -11 -93 -2 -231 24 l-24 4 7 102 c4 56 12 122 17 147 20 90 21 96
7 108 -11 9 -13 5 -10 -23 3 -27 0 -34 -18 -40 -28 -9 -50 11 -50 46 0 22 6
30 25 35 21 5 23 9 14 21 -7 8 -21 13 -33 11 -26 -4 -39 -58 -20 -90 7 -13 18
-33 23 -46 12 -26 13 -232 2 -251 -7 -11 -31 -11 -133 -1 -122 13 -125 13
-170 -10 -45 -22 -57 -37 -78 -93 -12 -33 -15 -1812 -3 -1844 4 -12 8 393 8
900 0 865 1 924 18 957 31 61 60 75 157 74 47 0 114 -5 150 -11 398 -64 605
-89 594 -72 -2 4 -6 121 -7 259 l-3 252 28 35 c31 39 31 39 18 68 -8 20 -9 20
-9 -1z m-544 -286 c-3 -7 -5 -2 -5 12 0 14 2 19 5 13 2 -7 2 -19 0 -25z"/>
<path d="M3925 4630 c-3 -5 -1 -10 4 -10 6 0 11 5 11 10 0 6 -2 10 -4 10 -3 0
-8 -4 -11 -10z"/>
<path d="M2196 4544 c-22 -22 -20 -41 2 -21 10 10 29 17 41 17 12 0 19 4 16
10 -9 15 -42 12 -59 -6z"/>
<path d="M2271 4502 c11 -31 9 -36 -22 -68 -18 -19 -29 -34 -23 -34 14 0 28
12 47 40 21 30 21 50 2 76 -13 17 -14 16 -4 -14z"/>
<path d="M1391 4501 c-17 -11 -28 -106 -12 -115 8 -5 8 -13 -1 -29 -7 -13 -13
-64 -14 -122 0 -63 2 -90 7 -72 4 16 12 34 17 40 5 7 13 37 16 68 4 31 14 65
21 75 13 17 14 8 15 -73 0 -56 -4 -93 -10 -93 -6 0 -10 -28 -10 -64 0 -65 -15
-126 -31 -126 -5 0 -9 -4 -9 -10 0 -5 11 -10 25 -10 19 0 25 5 25 21 0 11 3
18 8 16 8 -6 9 16 12 212 1 110 4 147 16 158 7 8 14 20 14 26 0 6 -10 2 -21
-10 -18 -18 -26 -20 -46 -10 -20 9 -24 17 -21 51 3 34 7 42 26 44 13 2 33 -5
44 -15 21 -18 21 -18 9 4 -11 22 -40 43 -58 43 -4 0 -14 -4 -22 -9z"/>
<path d="M2220 4500 c0 -6 7 -10 15 -10 8 0 15 2 15 4 0 2 -7 6 -15 10 -8 3
-15 1 -15 -4z"/>
<path d="M2171 4492 c-1 -20 18 -52 31 -52 7 0 5 7 -4 18 -9 9 -18 24 -21 32
-4 10 -6 11 -6 2z"/>
<path d="M3226 4475 c-9 -26 -7 -32 5 -12 6 10 9 21 6 23 -2 3 -7 -2 -11 -11z"/>
<path d="M627 4452 c-15 -7 -16 -10 -4 -26 13 -18 14 -18 19 7 3 15 5 27 4 26
0 0 -9 -4 -19 -7z"/>
<path d="M3203 4414 c-15 -55 -9 -246 9 -284 17 -35 17 -35 12 -5 -3 17 -10
51 -17 77 -8 34 -8 73 0 140 11 96 10 121 -4 72z"/>
<path d="M2229 4333 c0 -32 -2 -96 -5 -143 -3 -47 -1 -103 5 -125 7 -30 9 5
10 143 1 100 -1 182 -4 182 -3 0 -5 -26 -6 -57z"/>
<path d="M1480 4346 c0 -9 7 -16 16 -16 9 0 14 5 12 12 -6 18 -28 21 -28 4z"/>
<path d="M2731 4343 c-19 -10 -41 -29 -50 -43 -14 -22 -11 -21 22 7 20 18 49
36 63 39 37 9 101 -12 109 -36 4 -11 10 -18 15 -15 5 3 16 -2 25 -12 21 -20
17 -102 -6 -149 -13 -24 -13 -32 -3 -42 10 -9 16 -7 28 10 23 33 19 47 -4 18
-20 -25 -20 -21 0 35 9 24 13 27 21 15 18 -26 -2 72 -22 112 -11 21 -31 45
-45 54 -37 25 -112 28 -153 7z"/>
<path d="M2657 4264 c-11 -11 3 -24 18 -18 8 4 12 10 9 15 -6 11 -18 12 -27 3z"/>
<path d="M1977 4242 c-10 -10 -17 -25 -16 -33 0 -8 5 -3 10 10 8 20 14 23 42
17 30 -5 31 -5 13 9 -25 19 -29 19 -49 -3z"/>
<path d="M2650 4172 c0 -49 4 -63 30 -94 17 -20 46 -42 66 -48 41 -14 117 -6
134 14 9 11 3 11 -31 -1 -58 -19 -111 -9 -150 29 -30 31 -33 52 -3 27 12 -10
11 -4 -5 21 -11 19 -21 52 -21 73 0 20 -4 37 -10 37 -6 0 -10 -26 -10 -58z"/>
<path d="M4520 4200 c-18 -6 -8 -8 39 -9 76 -1 140 -28 171 -71 28 -39 25 -45
-10 -20 -24 17 -38 20 -70 15 -22 -4 -38 -11 -34 -16 3 -5 -5 -8 -18 -8 -25 1
-121 -17 -180 -33 -37 -11 -54 -38 -36 -56 5 -5 11 -29 13 -53 2 -24 4 -49 4
-56 2 -25 38 -36 154 -48 47 -5 67 -4 67 4 0 7 19 11 49 11 72 0 101 26 101
91 0 30 6 56 14 65 39 39 -51 160 -137 185 -37 11 -92 10 -127 -1z"/>
<path d="M1987 4167 c19 -25 21 -36 17 -145 -4 -111 -5 -117 -27 -122 -20 -5
-20 -7 -4 -13 41 -15 42 -11 45 130 2 76 9 147 15 158 8 17 8 18 -4 9 -17 -12
-29 -12 -49 1 -8 5 -5 -3 7 -18z"/>
<path d="M4433 4161 c-41 -30 -93 -117 -93 -155 0 -12 11 6 25 39 23 57 50 89
105 127 14 9 20 17 14 17 -6 1 -29 -12 -51 -28z"/>
<path d="M2483 4163 c-23 -9 -13 -20 15 -17 15 2 19 1 10 -2 -21 -6 -24 -44
-4 -44 13 0 29 48 19 62 -5 9 -21 9 -40 1z"/>
<path d="M58 4028 c6 -69 22 -87 22 -26 0 49 -7 78 -20 78 -4 0 -5 -24 -2 -52z"/>
<path d="M2500 3716 c3 -200 7 -367 10 -369 3 -3 5 161 6 364 0 253 -3 369
-10 369 -8 0 -9 -112 -6 -364z"/>
<path d="M1372 4050 c0 -14 2 -19 5 -12 2 6 2 18 0 25 -3 6 -5 1 -5 -13z"/>
<path d="M3277 3991 c26 -49 137 -146 205 -180 32 -17 93 -37 135 -47 66 -15
85 -15 145 -4 38 8 71 17 74 22 3 5 -7 5 -23 1 -15 -4 -73 -8 -128 -8 -97 1
-102 2 -189 44 -85 41 -155 98 -214 176 l-23 30 18 -34z"/>
<path d="M1238 3993 c12 -2 32 -2 45 0 12 2 2 4 -23 4 -25 0 -35 -2 -22 -4z"/>
<path d="M2221 3964 c1 -21 5 -50 10 -64 6 -17 7 -7 4 34 -5 66 -16 90 -14 30z"/>
<path d="M1323 3983 c9 -2 23 -2 30 0 6 3 -1 5 -18 5 -16 0 -22 -2 -12 -5z"/>
<path d="M1440 3977 c0 -12 8 -17 28 -17 15 0 38 -3 52 -6 20 -4 22 -3 10 5
-8 6 -26 11 -40 11 -15 0 -31 5 -38 12 -9 9 -12 8 -12 -5z"/>
<path d="M3445 3950 c-3 -5 -1 -10 4 -10 6 0 11 5 11 10 0 6 -2 10 -4 10 -3 0
-8 -4 -11 -10z"/>
<path d="M4342 3935 c0 -16 2 -22 5 -12 2 9 2 23 0 30 -3 6 -5 -1 -5 -18z"/>
<path d="M66 3896 c-4 -32 -7 -241 -6 -465 1 -223 0 -770 -3 -1216 -2 -445 -1
-702 2 -570 l7 240 2 -369 2 -368 26 16 c14 10 31 15 37 13 7 -2 -4 -11 -24
-20 -35 -14 -37 -18 -40 -65 -4 -47 -3 -49 16 -40 11 6 36 25 56 43 20 18 57
45 83 60 58 34 60 50 4 41 -49 -7 -33 7 20 19 21 4 32 3 32 -5 0 -14 58 -4 80
15 23 19 41 27 38 18 -2 -4 2 -9 7 -10 6 -2 11 2 11 7 3 23 5 24 14 10 8 -12
10 -11 10 8 0 12 -1 22 -2 22 -2 0 -28 -7 -58 -15 -30 -8 -56 -12 -58 -10 -3
3 1 7 9 9 69 22 92 27 104 22 7 -2 15 -1 17 3 4 11 58 23 58 13 0 -4 -14 -13
-31 -19 -31 -12 -35 -33 -8 -41 8 -3 11 -1 7 3 -5 5 6 16 22 26 17 11 30 26
30 34 0 8 5 15 10 15 6 0 10 10 11 23 0 21 1 21 8 2 6 -15 17 -20 42 -19 l34
1 3 373 2 373 -32 -7 c-18 -4 -69 -10 -113 -14 l-80 -7 60 -5 c58 -5 59 -6 68
-40 4 -19 9 -98 9 -175 1 -154 4 -147 -69 -165 -49 -12 -60 -36 -13 -26 17 3
44 9 61 13 l32 6 -7 -89 c-4 -49 -9 -102 -11 -119 -2 -16 -4 -35 -4 -41 -1
-13 -157 -44 -221 -44 -88 -1 -171 -18 -196 -41 -13 -12 -27 -20 -30 -16 -3 3
-6 547 -6 1209 0 662 -3 1257 -7 1323 -6 115 -7 118 -15 61z m234 -2626 c0 -5
-6 -11 -12 -13 -7 -3 -4 -6 7 -7 l20 -1 -20 -9 c-11 -5 -28 -9 -38 -9 -16 -1
-16 1 -2 29 10 19 20 27 30 24 8 -4 15 -10 15 -14z m-90 -50 c-8 -5 -22 -9
-30 -9 -10 0 -8 3 5 9 27 12 43 12 25 0z"/>
<path d="M324 3938 c0 -7 -3 -13 -7 -13 -5 0 -18 -18 -30 -40 -21 -40 -21 -49
-24 -852 l-4 -813 25 -53 c31 -64 63 -83 131 -80 28 1 78 3 111 4 53 1 63 4
72 22 8 16 11 18 11 6 1 -13 12 -17 49 -18 58 -1 82 6 82 25 0 8 5 14 10 14 6
0 10 -7 10 -15 0 -8 9 -15 20 -15 17 0 20 7 20 48 0 53 13 85 24 57 3 -9 6
-35 6 -57 0 -40 0 -40 33 -34 17 3 66 8 107 11 117 10 118 10 128 58 l10 42 1
-38 1 -39 38 6 c20 3 65 7 99 8 55 3 63 6 64 23 1 17 2 17 6 3 2 -10 13 -18
24 -18 16 0 19 7 19 47 0 53 6 55 12 4 3 -27 9 -35 26 -36 26 -2 28 4 31 90 3
97 11 96 11 -2 0 -74 2 -81 22 -86 12 -3 26 -3 32 0 5 4 31 6 58 6 l48 -1 1
36 c1 36 1 36 8 7 4 -21 13 -31 29 -33 21 -3 22 0 22 72 0 44 4 76 10 76 6 0
10 -22 10 -50 0 -27 4 -50 9 -50 5 0 12 -10 14 -22 2 -13 5 0 6 27 2 38 4 45
11 30 5 -11 9 -32 9 -47 1 -21 6 -28 20 -28 11 0 23 5 26 10 3 6 19 10 34 10
15 0 31 3 35 7 3 4 22 7 41 8 18 0 37 3 40 7 4 4 13 4 20 2 8 -4 15 4 18 18
l4 23 2 -23 c1 -21 2 -22 17 -8 8 9 20 14 25 11 5 -4 9 -1 9 4 0 14 22 10 35
-7 8 -10 14 -8 27 7 12 14 13 21 5 25 -7 4 0 4 14 1 19 -3 29 0 33 11 9 23 8
27 -8 21 -8 -3 -22 3 -32 14 -17 19 -18 19 -39 -1 -13 -12 -35 -20 -57 -20
-30 0 -41 7 -73 46 -42 51 -43 56 -25 177 9 58 17 84 25 81 6 -3 12 2 12 11 0
8 -7 15 -16 15 -13 1 -12 3 3 15 19 14 19 15 -7 15 -15 0 -27 5 -27 10 0 6 -5
10 -10 10 -21 0 -68 43 -63 56 3 8 9 12 14 9 13 -8 60 6 53 16 -3 5 1 9 8 9 9
0 10 3 2 8 -6 4 -8 15 -5 26 4 10 4 41 0 70 -7 51 8 86 35 86 6 0 3 -7 -6 -14
-10 -7 -18 -17 -18 -21 0 -4 6 -3 13 3 6 5 27 13 45 17 29 6 46 25 22 25 -5 0
-8 20 -7 44 1 38 5 46 24 51 13 3 23 13 23 23 1 15 2 15 13 2 14 -18 37 -24
37 -10 0 5 -7 10 -15 10 -21 0 -19 17 4 37 11 9 18 21 17 27 -2 6 -1 8 1 4 3
-5 11 -8 19 -8 22 0 16 -17 -8 -23 -29 -8 -14 -22 23 -22 20 0 28 4 24 13 -3
9 0 10 15 2 16 -9 18 -7 15 11 -5 25 18 51 42 48 35 -3 43 1 43 24 0 45 -11
65 -31 60 -15 -4 -19 0 -19 22 0 22 4 26 23 23 26 -4 56 40 36 52 -8 6 -8 9 0
14 17 11 13 45 -10 83 -18 28 -26 33 -54 31 -38 -2 -58 -14 -70 -43 -7 -18 -9
-18 -14 8 l-6 28 -19 -35 c-15 -28 -25 -36 -48 -36 -25 0 -28 -4 -28 -31 0
-17 -4 -28 -10 -24 -5 3 -6 13 -3 21 5 14 2 14 -32 0 -21 -9 -39 -16 -42 -16
-2 0 -1 -20 2 -44 6 -38 4 -44 -14 -49 -11 -3 -25 1 -32 9 -9 12 -9 13 3 9 11
-4 15 2 15 26 l0 32 -18 -21 c-11 -14 -23 -20 -34 -16 -8 4 -15 3 -14 -2 4
-13 -42 -104 -52 -104 -5 0 -6 -6 -3 -14 3 -8 0 -24 -6 -36 -7 -13 -8 -20 -2
-16 6 3 12 0 15 -6 8 -25 37 13 36 46 -1 30 -1 30 -9 6 -7 -22 -8 -22 -9 -4
-1 24 7 34 22 28 7 -2 11 -23 11 -47 -1 -23 -5 -40 -9 -39 -4 2 -11 -1 -15 -8
-5 -7 -14 -8 -33 -1 -17 7 -27 7 -27 1 0 -5 -7 -7 -16 -3 -12 4 -15 0 -12 -18
2 -20 8 -24 32 -22 35 3 31 -3 -20 -21 -29 -11 -33 -15 -16 -15 13 -1 21 -5
18 -10 -3 -4 5 -7 17 -6 32 4 33 4 18 14 -9 6 -10 11 -2 15 6 4 11 2 11 -4 0
-6 7 -10 16 -8 10 2 19 -3 21 -9 3 -8 -4 -13 -17 -13 -11 0 -39 -9 -60 -20
-22 -11 -40 -17 -40 -14 0 4 -9 -1 -20 -11 -11 -10 -20 -13 -20 -7 0 7 -8 12
-17 12 -14 0 -15 -2 -4 -9 11 -7 11 -9 0 -14 -8 -2 -1 -8 16 -12 17 -4 42 -14
58 -22 16 -8 27 -9 27 -3 0 5 9 10 19 10 11 0 26 8 33 18 7 9 24 23 38 30 18
9 14 2 -13 -22 -22 -20 -34 -37 -28 -41 6 -3 11 -35 11 -71 l0 -64 -30 0 c-30
0 -30 1 -30 54 0 30 -4 58 -10 61 -6 4 -10 -17 -10 -54 0 -61 0 -61 -29 -61
-29 0 -29 0 -36 76 -6 63 -11 77 -26 81 -11 3 -19 9 -19 14 0 5 -4 9 -9 9 -5
0 -7 -9 -4 -20 3 -11 14 -20 24 -20 17 0 19 -8 19 -70 l0 -70 -30 0 c-20 0
-30 5 -30 15 0 8 9 15 20 15 11 0 20 5 20 10 0 6 -9 10 -20 10 -24 0 -26 22
-4 44 14 15 14 16 -5 16 -18 0 -21 5 -19 31 1 17 6 33 11 36 4 2 -2 19 -13 38
-17 28 -18 34 -5 45 13 11 13 14 -1 27 -9 9 -13 25 -11 35 8 29 -12 78 -29 71
-8 -3 -14 0 -14 6 0 6 -4 11 -10 11 -5 0 -10 -8 -10 -17 0 -9 -3 -14 -6 -10
-3 3 -25 0 -49 -7 -40 -13 -44 -12 -72 13 -17 14 -33 36 -37 48 -5 15 -12 20
-23 16 -11 -5 -14 -3 -8 6 4 8 20 11 36 9 31 -5 36 1 17 20 -9 9 -9 12 0 12 6
0 15 -7 20 -17 8 -14 11 -13 17 7 5 15 10 19 15 10 10 -17 50 9 50 32 0 13 8
18 30 18 17 0 30 5 30 12 0 6 6 3 14 -7 8 -11 12 -23 10 -27 -7 -10 58 2 71
13 9 9 -6 13 -34 10 -7 -2 -10 2 -6 8 9 15 -8 14 -23 -1 -9 -9 -12 -6 -12 15
0 15 7 30 15 33 8 4 15 10 15 15 0 4 -7 6 -15 2 -9 -3 -21 1 -28 10 -7 9 -23
18 -37 20 -24 4 -24 4 3 6 16 0 26 5 22 11 -3 6 0 11 7 11 7 1 0 5 -17 9 -29
7 -29 8 -5 10 19 2 15 5 -15 10 -36 7 -33 8 23 7 34 0 63 2 65 4 1 2 11 15 22
28 l20 24 -26 -17 c-26 -16 -27 -16 -33 6 -10 40 -7 67 11 77 10 5 14 13 10
17 -4 4 -14 -1 -21 -12 -22 -30 -28 -12 -11 36 8 23 15 43 15 44 0 0 -10 1
-23 1 -21 0 -23 -2 -13 -28 9 -24 8 -31 -8 -43 -33 -23 -112 -14 -105 12 2 5
0 26 -5 47 -6 32 -11 38 -27 34 -10 -3 -21 -1 -24 3 -3 5 3 11 12 13 15 4 15
5 -2 6 -11 0 -26 10 -33 21 -7 11 -18 17 -27 14 -8 -4 -15 -1 -15 5 0 6 -7 8
-15 5 -11 -5 -15 -22 -15 -64 0 -59 0 -59 32 -62 48 -5 48 -28 1 -28 -51 0
-63 14 -63 70 0 25 -7 55 -15 66 -8 10 -15 15 -15 10 0 -5 -9 -1 -20 9 -11 10
-20 13 -20 8 0 -6 7 -14 16 -17 8 -3 13 -10 9 -15 -3 -6 4 -15 15 -21 19 -10
29 -50 11 -50 -4 0 -6 -12 -3 -26 6 -35 -20 -28 -28 7 -5 19 -13 25 -42 27
-31 3 -36 0 -42 -24 -4 -15 -11 -23 -16 -18 -8 9 8 87 23 112 9 13 1 32 -14
32 -5 0 -9 -5 -9 -11 0 -5 5 -7 12 -3 7 4 8 3 4 -4 -8 -14 -61 9 -69 30 -3 7
-5 2 -4 -12 1 -14 4 -27 7 -30 9 -8 -10 -110 -21 -110 -5 0 -9 15 -9 34 0 19
-4 38 -10 41 -6 3 -10 12 -10 18 0 7 4 6 10 -3 8 -13 10 -12 10 3 0 9 -7 17
-17 17 -15 0 -14 2 3 15 10 8 15 15 9 14 -28 -4 -45 3 -45 16 0 8 -4 15 -10
15 -5 0 -10 -15 -10 -34 0 -57 -12 -126 -21 -120 -5 3 -9 44 -10 92 -1 52 -4
77 -8 62 -6 -21 -8 -22 -14 -7 -5 14 -17 17 -57 16 -27 -1 -50 -6 -50 -11 0
-4 -6 -7 -12 -6 -8 2 -14 -11 -16 -35 -4 -50 19 -77 65 -77 29 0 33 3 33 25 0
20 -5 25 -26 25 -37 0 -25 25 12 26 17 0 35 4 42 8 7 4 12 3 12 -3 0 -5 -4
-11 -9 -13 -6 -1 -11 -24 -12 -50 -3 -47 -3 -48 -37 -48 -18 0 -42 5 -53 10
-42 23 -62 105 -39 165 8 21 7 27 -7 32 -9 4 -19 1 -21 -5 -2 -7 -8 -10 -13
-6 -5 3 -9 -36 -9 -92 0 -122 -17 -115 -22 8 -2 49 -7 88 -11 88 -5 0 -5 6 -1
13 5 8 2 7 -10 -2 -13 -11 -14 -16 -4 -22 9 -6 7 -9 -7 -9 -15 0 -17 -2 -6 -9
12 -8 11 -35 -5 -94 -8 -25 -56 -47 -104 -47 l-40 0 0 70 c0 40 -4 70 -10 70
-5 0 -10 8 -10 18 0 14 -2 15 -10 2 -8 -13 -10 -12 -10 3 0 9 -5 17 -11 17 -5
0 -7 5 -4 10 3 6 -1 10 -9 10 -9 0 -16 -4 -16 -8 0 -4 -9 -8 -20 -8 -11 0 -20
4 -20 8 0 4 -4 8 -9 8 -5 0 -8 -6 -7 -12z m1196 -305 c0 -14 -19 -38 -25 -32
-8 8 5 39 16 39 5 0 9 -3 9 -7z m-4 -57 c19 -20 18 -25 -6 -19 -11 3 -20 12
-20 19 0 18 8 18 26 0z m-203 -83 c-7 -2 -21 -2 -30 0 -10 3 -4 5 12 5 17 0
24 -2 18 -5z m-70 -10 c-7 -2 -21 -2 -30 0 -10 3 -4 5 12 5 17 0 24 -2 18 -5z
m194 -8 c0 -13 -44 -18 -52 -6 -3 5 -15 7 -28 4 -15 -3 -18 -2 -9 4 17 13 89
11 89 -2z m-215 -47 c-7 -7 -12 -20 -12 -31 0 -10 -4 -15 -10 -12 -16 10 -11
43 8 48 9 3 19 5 22 6 2 0 -1 -4 -8 -11z m-302 -2 c0 -2 -7 -6 -15 -10 -8 -3
-15 -1 -15 4 0 6 7 10 15 10 8 0 15 -2 15 -4z m1133 -3 c-7 -2 -19 -2 -25 0
-7 3 -2 5 12 5 14 0 19 -2 13 -5z m-684 -10 c-3 -21 2 -24 18 -12 15 13 15 12
2 -8 -18 -30 -31 -34 -49 -15 -13 14 -12 15 3 9 15 -6 17 -3 12 13 -4 11 -2
20 4 20 6 0 10 -3 10 -7z m131 -25 c0 -6 -6 -5 -15 2 -8 7 -15 14 -15 16 0 2
7 1 15 -2 8 -4 15 -11 15 -16z m-600 -23 c18 -18 20 -34 21 -160 1 -77 -1
-150 -5 -161 -9 -30 -30 -34 -202 -34 -165 0 -172 2 -179 57 -2 15 -4 28 -5
28 -7 0 -6 253 1 272 l9 25 170 -4 c154 -3 171 -5 190 -23z m394 -18 c4 4 4
-1 0 -11 -4 -10 -7 -26 -8 -37 -1 -11 -4 -19 -8 -19 -5 0 -12 0 -18 0 -11 0
-14 63 -3 73 3 4 11 2 18 -3 7 -5 15 -7 19 -3z m106 -4 c0 -14 -26 -18 -34 -4
-7 11 0 18 19 18 8 0 15 -6 15 -14z m606 -78 c-5 -18 -2 -27 9 -31 8 -4 15
-11 15 -17 0 -5 -8 -3 -17 5 -10 9 -23 13 -30 11 -12 -4 -11 26 2 47 13 20 27
10 21 -15z m-100 -90 c-3 -8 -10 -15 -15 -15 -5 0 -4 11 2 25 12 25 23 16 13
-10z m139 15 c-3 -5 -11 -10 -16 -10 -6 0 -7 5 -4 10 3 6 11 10 16 10 6 0 7
-4 4 -10z m-497 -45 c-3 -3 -9 2 -12 12 -6 14 -5 15 5 6 7 -7 10 -15 7 -18z
m318 -19 c-4 -19 -13 -36 -20 -39 -10 -4 -12 1 -8 15 4 17 2 20 -11 15 -10 -4
-17 -3 -17 0 0 9 54 52 59 48 2 -2 0 -20 -3 -39z m63 -58 c-10 -25 -14 -27
-21 -13 -7 12 -5 22 8 36 10 11 12 19 6 19 -16 0 -15 23 1 39 17 18 22 -42 6
-81z m28 30 c-3 -7 -5 -2 -5 12 0 14 2 19 5 13 2 -7 2 -19 0 -25z m-1 -84 c-4
-9 -9 -15 -11 -12 -3 3 -3 13 1 22 4 9 9 15 11 12 3 -3 3 -13 -1 -22z m-712
-56 c-3 -4 6 -10 20 -14 16 -4 26 -15 30 -36 9 -45 7 -101 -4 -118 -6 -10 -10
-11 -10 -2 0 7 -13 12 -30 12 -16 0 -30 5 -30 10 0 6 11 10 25 10 16 0 25 6
25 15 0 8 -9 15 -20 15 -18 0 -20 7 -20 54 0 30 -3 62 -7 72 -6 16 -5 17 9 4
9 -8 14 -18 12 -22z m271 12 c-5 -16 -2 -20 18 -20 22 0 25 -5 30 -62 3 -34 3
-66 1 -70 -3 -4 -21 -8 -40 -8 -42 0 -43 23 -1 28 37 4 34 22 -3 22 -28 0 -30
3 -30 35 0 19 -4 35 -10 35 -5 0 -10 9 -10 20 0 13 7 20 20 20 11 0 20 5 20
10 0 6 3 10 6 10 3 0 2 -9 -1 -20z m-135 -95 c0 -73 -1 -75 -25 -75 -14 0 -25
5 -25 10 0 6 7 10 15 10 8 0 15 7 15 15 0 8 -9 15 -20 15 -17 0 -20 7 -20 50
0 49 1 50 30 50 l30 0 0 -75z m-270 39 c17 -44 12 -62 -17 -66 -36 -4 -41 -26
-7 -30 46 -5 42 -28 -5 -28 l-41 0 0 39 c0 36 3 40 31 46 36 8 33 29 -4 33
-38 5 -35 32 3 32 24 0 33 -6 40 -26z m90 -42 c0 -38 -2 -71 -5 -74 -8 -8 -55
3 -55 13 0 5 9 9 20 9 11 0 20 7 20 15 0 8 -9 15 -20 15 -11 0 -20 7 -20 15 0
8 9 15 20 15 11 0 20 7 20 15 0 8 -9 15 -20 15 -11 0 -20 7 -20 15 0 10 10 15
30 15 l30 0 0 -68z m-490 -8 c7 -87 5 -94 -37 -94 -38 0 -43 23 -5 28 31 5 28
32 -3 32 -30 0 -33 16 -5 23 11 3 20 10 20 17 0 6 -4 8 -10 5 -5 -3 -10 -2
-10 4 0 5 6 12 13 14 6 3 2 6 -10 6 -23 1 -37 14 -26 25 4 4 21 6 38 4 29 -3
30 -5 35 -64z m100 51 c0 -10 -10 -15 -30 -15 -23 0 -30 -4 -30 -20 0 -13 7
-20 20 -20 11 0 20 7 20 15 0 8 5 15 10 15 7 0 10 -22 8 -57 l-3 -58 -34 0
c-38 0 -54 22 -20 27 32 4 35 26 4 34 -17 4 -24 11 -21 21 3 8 6 28 6 44 0 27
3 29 35 29 24 0 35 -5 35 -15z m100 -60 c0 -43 -4 -75 -10 -75 -5 0 -10 11
-10 25 0 14 -4 25 -10 25 -5 0 -10 -11 -10 -25 0 -16 -6 -25 -16 -25 -12 0
-14 9 -12 43 2 35 7 43 26 45 31 5 29 32 -3 32 -16 0 -25 6 -25 15 0 10 11 15
35 15 l35 0 0 -75z m-312 18 c3 -40 1 -43 -22 -43 -19 0 -26 -5 -26 -20 0 -16
7 -20 30 -20 36 0 40 -17 5 -26 -41 -10 -55 1 -55 45 0 30 4 40 20 44 25 7 26
37 1 37 -10 0 -22 7 -25 16 -5 12 1 15 32 12 36 -3 37 -4 40 -45z m822 -118
c0 -2 -10 -10 -22 -16 -21 -11 -22 -11 -9 4 13 16 31 23 31 12z m367 -17 c-3
-8 -6 -5 -6 6 -1 11 2 17 5 13 3 -3 4 -12 1 -19z m-448 -51 l12 -22 -5 23 c-3
16 1 22 15 22 24 0 24 -9 2 -40 -10 -14 -16 -25 -14 -25 2 0 1 -26 -3 -57 -9
-68 -31 -80 -38 -20 -6 47 1 72 19 72 8 0 12 4 8 10 -3 5 -24 7 -46 5 -45 -5
-79 11 -79 37 0 33 111 29 129 -5z m-159 -7 c0 -20 -5 -30 -15 -30 -8 0 -15 4
-15 9 0 5 -3 16 -6 24 -3 10 2 17 13 20 10 3 19 5 21 6 1 0 2 -12 2 -29z
m-462 -27 c3 -32 2 -33 -32 -33 -31 0 -36 3 -36 23 0 55 63 64 68 10z m-80 -5
c2 -18 -1 -28 -10 -29 -81 -4 -88 -3 -88 11 -1 12 -3 11 -11 -2 -16 -29 -39
-22 -39 11 0 29 2 30 53 33 92 5 92 5 95 -24z m960 -11 c2 -10 -4 -28 -14 -39
-18 -19 -18 -20 -1 -29 21 -12 13 -29 -13 -29 -27 0 -31 12 -15 44 10 19 12
33 5 46 -5 9 -6 20 -3 24 12 12 38 1 41 -17z m-60 -15 c2 -13 -4 -32 -14 -43
-10 -11 -12 -19 -6 -19 7 0 12 -4 12 -10 0 -5 -11 -10 -25 -10 -29 0 -33 24
-9 58 14 20 14 22 0 22 -9 0 -16 4 -16 8 0 32 54 26 58 -6z m-74 -30 c0 -24
-5 -47 -11 -50 -5 -4 -13 -14 -16 -22 -3 -8 -6 6 -6 33 -1 31 3 47 12 47 6 0
4 5 -5 11 -25 14 -22 31 5 27 19 -3 22 -9 21 -46z m-44 -17 c0 -41 -11 -45
-29 -11 -15 26 -8 46 15 46 9 0 14 -11 14 -35z m-216 4 c12 19 26 12 26 -13 0
-27 -18 -33 -122 -35 -67 -2 -68 -2 -68 24 0 23 4 26 28 23 15 -1 30 -7 34
-13 5 -6 8 -5 8 3 0 19 40 14 41 -5 0 -14 2 -15 6 -3 8 21 26 31 34 18 4 -7 9
-7 13 1z m496 -55 c0 -8 -4 -14 -9 -14 -6 0 -12 -21 -14 -47 -3 -40 -4 -37 -5
19 -2 56 0 66 13 62 8 -4 15 -12 15 -20z m-320 -74 c0 -17 -5 -30 -12 -30 -9
0 -9 -3 1 -9 15 -10 8 -41 -9 -41 -5 0 -10 8 -10 18 -1 9 -3 34 -6 55 -5 33
-3 37 15 37 17 0 21 -6 21 -30z m-127 -27 c5 -48 -2 -63 -30 -63 -9 0 -13 18
-13 55 0 47 3 55 19 55 15 0 19 -10 24 -47z m63 31 c-1 -8 -9 -20 -17 -25 -11
-7 -10 -9 5 -9 11 0 16 -3 13 -6 -3 -4 -2 -15 4 -25 8 -17 6 -19 -21 -19 -29
0 -30 1 -30 50 0 46 2 50 24 50 16 0 23 -5 22 -16z m-132 -10 c17 -43 0 -94
-31 -94 -14 0 -19 90 -6 103 11 12 31 7 37 -9z m-139 -49 c0 -43 -3 -50 -20
-50 -17 0 -20 8 -23 53 -3 51 -2 53 20 50 21 -3 23 -8 23 -53z m85 18 c0 -47
-12 -66 -36 -61 -15 2 -20 14 -22 51 -3 46 -3 47 27 47 29 0 31 -2 31 -37z
m-220 -28 c0 -60 -18 -75 -38 -32 l-11 22 0 -22 c-2 -47 -21 -21 -21 27 0 53
12 64 36 33 12 -17 13 -16 14 5 0 12 5 22 10 22 6 0 10 -25 10 -55z m-90 -7
c0 -28 -3 -48 -7 -45 -3 4 -12 2 -20 -4 -11 -9 -13 -1 -13 45 0 49 2 56 20 56
17 0 20 -7 20 -52z m-204 -20 c-14 -60 -31 -72 -40 -27 -9 46 -8 87 3 71 6
-10 10 -10 21 2 21 27 28 9 16 -46z m84 7 c0 -48 -2 -55 -20 -55 -11 0 -23 0
-27 0 -5 0 -10 21 -11 46 -4 48 6 64 41 64 14 0 17 -9 17 -55z m60 13 c0 -48
-8 -64 -30 -63 -11 0 -16 14 -18 53 -3 50 -2 52 22 52 24 0 26 -4 26 -42z
m-224 -13 c1 -22 5 -49 9 -60 6 -17 4 -17 -14 4 -16 17 -21 19 -21 8 0 -9 -4
-19 -10 -22 -6 -4 -10 17 -10 55 0 58 1 61 23 58 18 -2 22 -10 23 -43z"/>
<path d="M728 3308 c6 -6 18 -8 28 -6 14 3 12 5 -9 10 -19 3 -25 2 -19 -4z"/>
<path d="M783 3205 c0 -55 2 -88 4 -73 4 23 10 27 41 31 l37 4 -37 1 -37 2 -4
68 c-2 46 -3 37 -4 -33z"/>
<path d="M713 3093 c9 -2 25 -2 35 0 9 3 1 5 -18 5 -19 0 -27 -2 -17 -5z"/>
<path d="M1250 2895 c0 -8 5 -15 10 -15 6 0 10 7 10 15 0 8 -4 15 -10 15 -5 0
-10 -7 -10 -15z"/>
<path d="M1340 2905 c0 -8 5 -15 10 -15 6 0 10 7 10 15 0 8 -4 15 -10 15 -5 0
-10 -7 -10 -15z"/>
<path d="M581 2644 c0 -11 3 -14 6 -6 3 7 2 16 -1 19 -3 4 -6 -2 -5 -13z"/>
<path d="M1022 2390 c0 -19 2 -27 5 -17 2 9 2 25 0 35 -3 9 -5 1 -5 -18z"/>
<path d="M1582 3944 c4 -3 21 -8 40 -10 18 -3 44 -7 58 -10 76 -14 181 -25
197 -22 10 3 -9 8 -42 12 -33 4 -90 14 -127 22 -68 14 -136 19 -126 8z"/>
<path d="M480 3840 l0 -60 34 0 c25 0 39 7 50 22 18 25 22 93 6 83 -6 -4 -8
-11 -4 -16 3 -5 0 -8 -8 -7 -7 2 -16 9 -19 17 -3 8 -18 16 -32 18 -27 4 -27 3
-27 -57z"/>
<path d="M4350 3892 c0 -19 39 -72 52 -72 7 0 2 10 -9 23 -11 12 -25 31 -31
42 -7 11 -12 14 -12 7z"/>
<path d="M2068 3873 c7 -3 16 -2 19 1 4 3 -2 6 -13 5 -11 0 -14 -3 -6 -6z"/>
<path d="M4724 3818 l-29 -33 33 29 c30 28 37 36 29 36 -2 0 -16 -15 -33 -32z"/>
<path d="M1120 3804 c-14 -36 -12 -47 6 -40 9 3 18 6 20 6 3 0 0 9 -6 20 -6
11 -8 25 -5 30 3 6 4 10 0 10 -3 0 -10 -12 -15 -26z"/>
<path d="M1430 3780 c0 -15 7 -20 27 -20 25 0 25 14 0 15 -7 1 -11 6 -9 13 1
7 -2 12 -8 12 -5 0 -10 -9 -10 -20z"/>
<path d="M1180 3755 c0 -8 4 -15 8 -15 5 0 9 7 9 15 0 8 -4 15 -9 15 -4 0 -8
-7 -8 -15z"/>
<path d="M1710 3759 c0 -5 5 -7 10 -4 6 3 10 8 10 11 0 2 -4 4 -10 4 -5 0 -10
-5 -10 -11z"/>
<path d="M1824 3740 c-1 -16 3 -27 7 -24 11 6 12 54 2 54 -5 0 -8 -13 -9 -30z"/>
<path d="M4573 3753 c9 -2 23 -2 30 0 6 3 -1 5 -18 5 -16 0 -22 -2 -12 -5z"/>
<path d="M1576 3737 c3 -10 9 -15 12 -12 3 3 0 11 -7 18 -10 9 -11 8 -5 -6z"/>
<path d="M1693 3721 c1 -11 7 -23 14 -26 11 -4 11 0 2 18 -16 31 -18 32 -16 8z"/>
<path d="M1430 3705 c0 -23 4 -26 28 -23 19 2 27 9 27 23 0 14 -8 21 -27 23
-24 3 -28 0 -28 -23z"/>
<path d="M1990 3671 c0 -5 7 -12 16 -15 14 -5 15 -4 4 9 -14 17 -20 19 -20 6z"/>
<path d="M4755 3669 c-27 -4 -88 -12 -135 -17 -76 -7 -69 -8 73 -7 86 1 160 4
163 8 11 11 -7 27 -29 26 -12 -1 -44 -5 -72 -10z"/>
<path d="M1835 3660 c3 -5 8 -10 11 -10 2 0 4 5 4 10 0 6 -5 10 -11 10 -5 0
-7 -4 -4 -10z"/>
<path d="M4895 3661 c-28 -7 -29 -7 -8 -15 15 -5 30 -2 45 8 24 17 15 19 -37
7z"/>
<path d="M4972 3659 c2 -7 10 -15 17 -17 8 -3 12 1 9 9 -2 7 -10 15 -17 17 -8
3 -12 -1 -9 -9z"/>
<path d="M1580 3641 c0 -6 4 -13 10 -16 6 -3 7 1 4 9 -7 18 -14 21 -14 7z"/>
<path d="M1616 3625 c3 -7 14 -15 25 -18 10 -3 17 -1 13 4 -3 5 0 9 7 9 21 0
0 13 -25 16 -17 2 -23 -2 -20 -11z"/>
<path d="M4338 3633 c18 -2 45 -2 60 0 15 2 0 4 -33 4 -33 0 -45 -2 -27 -4z"/>
<path d="M3863 3622 c-12 -2 -27 -10 -35 -19 -12 -15 -11 -15 9 -5 12 7 54 12
94 12 40 0 70 2 68 4 -6 6 -111 12 -136 8z"/>
<path d="M4128 3623 c29 -2 74 -2 100 0 26 2 2 3 -53 3 -55 0 -76 -1 -47 -3z"/>
<path d="M1570 3600 c0 -5 5 -10 10 -10 6 0 10 5 10 10 0 6 -4 10 -10 10 -5 0
-10 -4 -10 -10z"/>
<path d="M3753 3593 c9 -2 25 -2 35 0 9 3 1 5 -18 5 -19 0 -27 -2 -17 -5z"/>
<path d="M4891 3584 c0 -11 3 -14 6 -6 3 7 2 16 -1 19 -3 4 -6 -2 -5 -13z"/>
<path d="M3708 3583 c7 -3 16 -2 19 1 4 3 -2 6 -13 5 -11 0 -14 -3 -6 -6z"/>
<path d="M3642 3564 c-12 -8 -29 -31 -37 -50 -16 -40 -32 -43 -44 -10 -11 28
-29 36 -84 36 -54 0 -36 -20 19 -22 58 -1 60 -7 20 -44 -36 -33 -76 -45 -76
-23 0 7 -13 9 -37 5 -30 -5 -296 -34 -338 -37 -5 0 -1 -4 10 -9 17 -7 16 -9
-10 -9 -16 -1 -43 6 -59 14 -15 8 -35 15 -43 15 -13 0 -13 2 -2 17 12 14 10
14 -14 -2 -15 -10 -51 -19 -79 -21 -46 -2 -52 -5 -66 -34 -11 -23 -12 -36 -4
-54 9 -21 7 -25 -15 -35 -31 -14 -41 -7 -22 15 8 10 -10 0 -38 -20 -29 -21
-53 -42 -53 -48 0 -5 14 0 30 12 17 12 30 18 30 13 0 -8 -49 -41 -60 -41 -14
0 -60 -26 -60 -34 0 -5 -4 -6 -10 -3 -6 3 -7 -1 -4 -9 4 -11 0 -16 -14 -16
-12 0 -33 -11 -49 -24 -26 -22 -29 -23 -68 -9 -39 14 -40 13 -63 -14 -29 -37
-38 -71 -23 -96 10 -15 10 -18 0 -15 -15 5 -69 -40 -69 -58 0 -6 -12 -20 -26
-29 -15 -10 -60 -52 -100 -93 -65 -68 -71 -77 -56 -88 10 -7 51 -13 92 -14
130 -4 149 -1 167 20 10 11 23 20 29 20 6 0 34 26 62 57 39 43 49 60 40 70
-15 18 28 52 67 53 101 4 145 25 282 135 44 35 63 57 63 73 0 14 9 27 25 34
13 6 23 14 21 17 -6 9 51 7 60 -1 4 -5 12 -8 18 -8 6 0 0 7 -12 16 -12 8 -20
20 -16 25 3 6 11 4 18 -6 8 -11 35 -18 91 -23 l80 -7 -75 -6 -75 -5 78 -2 c42
-1 77 -6 77 -12 0 -5 28 -10 63 -12 l62 -3 -30 -16 c-16 -9 -66 -35 -110 -58
-44 -23 -84 -46 -89 -51 -6 -6 -16 -4 -25 4 -9 8 -28 17 -43 21 -23 6 -26 4
-22 -12 4 -14 -4 -21 -38 -33 -29 -10 -47 -24 -56 -43 -12 -24 -11 -32 8 -66
18 -31 20 -42 11 -60 -7 -11 -16 -21 -21 -21 -5 0 -12 -16 -16 -35 -3 -19 -10
-35 -14 -35 -4 0 -11 -16 -15 -36 -7 -39 -45 -125 -59 -135 -5 -4 -6 -20 -2
-35 6 -27 5 -28 -9 -10 -12 16 -15 17 -15 4 0 -9 -11 -23 -26 -32 -23 -16 -25
-22 -23 -82 2 -48 7 -69 18 -76 14 -8 16 -34 13 -194 -2 -111 1 -191 7 -203
25 -46 110 -20 136 43 39 94 64 298 38 314 -8 5 -10 22 -6 50 4 32 12 46 33
58 19 12 38 42 64 103 59 139 95 255 83 263 -8 5 -1 18 18 40 41 45 47 49 70
44 32 -8 101 12 147 42 24 16 70 46 103 68 33 21 75 54 95 72 50 47 66 55 66
31 0 -10 -5 -18 -11 -16 -12 2 -54 -34 -179 -156 -56 -56 -96 -87 -105 -84 -9
3 -23 8 -33 12 -11 4 -18 0 -22 -13 -4 -11 -19 -22 -34 -25 -27 -6 -52 -40
-52 -72 0 -8 14 -29 30 -47 31 -34 38 -54 20 -60 -13 -4 -28 -106 -32 -218 -3
-84 -3 -86 -33 -102 -26 -13 -30 -20 -28 -54 3 -44 39 -86 75 -89 17 -1 26
-11 36 -41 7 -21 19 -46 27 -55 8 -8 15 -23 15 -32 0 -10 11 -36 25 -58 14
-22 30 -52 36 -67 38 -101 56 -120 88 -89 11 10 12 9 6 -1 -6 -11 -3 -12 14
-3 25 14 40 40 38 66 -2 15 6 21 34 25 20 4 53 14 73 23 20 9 51 24 69 32 42
20 167 124 167 140 0 7 9 20 19 29 16 15 21 15 28 3 4 -7 16 -16 25 -20 10 -3
20 -19 24 -34 9 -36 20 -43 67 -43 32 0 39 4 48 28 15 38 2 110 -27 154 -31
49 -30 64 6 83 31 16 42 32 15 22 -22 -9 -26 8 -4 21 12 8 19 8 19 2 0 -12 52
-2 61 12 3 6 10 9 15 9 5 -1 22 9 39 21 16 13 41 30 55 38 92 54 250 193 250
220 0 6 18 10 40 10 43 0 88 18 109 44 7 9 18 13 23 10 5 -3 2 -14 -8 -25 -14
-16 -15 -19 -2 -19 28 0 233 40 286 55 l52 16 0 369 c0 204 -3 370 -7 370 -5
0 -25 -4 -45 -9 -21 -5 -38 -5 -38 -1 0 5 20 12 45 16 41 6 45 9 45 35 0 25
-4 29 -27 30 -45 2 -57 -1 -73 -20 -8 -10 -27 -21 -42 -25 -16 -3 -28 -10 -28
-15 0 -5 -18 -12 -40 -16 -22 -4 -40 -11 -40 -16 0 -5 -8 -9 -18 -9 -10 0 -45
-7 -77 -16 -33 -9 -66 -16 -72 -17 -7 0 -13 -4 -13 -9 0 -5 -3 -7 -8 -4 -4 2
-30 -6 -57 -19 l-50 -24 33 29 32 30 -52 0 c-64 0 -258 25 -453 57 -43 8 -22
-10 28 -23 34 -8 19 -9 -83 -6 -113 3 -127 6 -145 25 -38 42 -69 57 -115 57
-25 0 -51 -5 -58 -12 -9 -9 -12 -7 -12 10 0 16 10 27 33 37 17 8 25 14 17 15
-9 0 -26 -7 -38 -16z m5 -82 c-1 -12 -10 -19 -29 -20 -15 -1 -28 2 -28 8 0 5
9 10 19 10 11 0 23 5 26 10 9 15 14 12 12 -8z m77 -31 c4 -5 -3 -7 -13 -4 -11
3 -34 -2 -50 -10 -27 -14 -31 -14 -31 -1 0 9 4 13 8 10 4 -2 14 -1 22 5 19 11
57 12 64 0z m-121 -21 c-3 -11 -12 -20 -19 -20 -16 0 -16 2 -8 24 9 24 33 20
27 -4z m-420 -17 c-13 -2 -33 -2 -45 0 -13 2 -3 4 22 4 25 0 35 -2 23 -4z
m-258 -33 c7 -12 -12 -12 -40 0 -18 8 -17 9 7 9 15 1 30 -3 33 -9z m-5 -26 c0
-2 -7 -4 -15 -4 -8 0 -15 4 -15 10 0 5 7 7 15 4 8 -4 15 -8 15 -10z m50 -4 c0
-5 -4 -10 -10 -10 -5 0 -10 5 -10 10 0 6 5 10 10 10 6 0 10 -4 10 -10z m743
-7 c-7 -2 -21 -2 -30 0 -10 3 -4 5 12 5 17 0 24 -2 18 -5z m-203 -93 c-6 -11
-12 -20 -14 -20 -2 0 -2 9 1 20 3 11 9 20 15 20 5 0 4 -9 -2 -20z m50 0 c0 -5
19 -15 43 -22 34 -9 37 -13 19 -16 -22 -3 -23 -5 -7 -28 9 -14 15 -30 13 -36
-4 -12 -48 56 -48 73 0 5 -6 9 -14 9 -8 0 -16 7 -20 15 -3 8 -1 15 4 15 6 0
10 -4 10 -10z m344 -19 c-2 -3 -12 3 -22 13 -16 17 -16 18 5 5 12 -7 20 -15
17 -18z m-74 -28 c0 -7 11 -13 26 -13 14 0 40 -11 57 -24 18 -13 48 -27 67
-31 19 -4 41 -12 48 -18 7 -5 15 -7 19 -4 3 4 11 0 17 -8 6 -8 38 -25 71 -39
37 -15 65 -33 72 -47 12 -23 13 -22 14 16 1 39 1 39 9 10 4 -16 18 -52 31 -80
12 -27 24 -57 25 -65 1 -8 5 -24 9 -35 3 -12 -1 -28 -10 -40 -16 -20 -16 -20
-6 2 14 28 -3 40 -21 15 -7 -10 -33 -33 -58 -52 -25 -19 -49 -41 -53 -48 -5
-7 -12 -10 -18 -7 -5 4 -9 1 -9 -5 0 -6 -4 -8 -10 -5 -5 3 -10 2 -10 -3 0 -14
-61 -78 -100 -105 -37 -24 -106 -48 -150 -50 -22 -2 -25 2 -28 39 -3 42 6 56
111 181 20 24 37 48 37 53 0 7 54 40 65 40 2 0 5 -9 8 -19 4 -17 11 -19 48
-15 55 7 64 14 16 14 -20 0 -39 5 -42 10 -4 6 5 10 19 10 38 0 32 20 -6 21
-27 0 -29 2 -13 9 17 6 14 8 -15 11 -21 3 -34 9 -33 17 2 8 -9 12 -32 12 -19
0 -35 4 -35 8 0 10 73 2 80 -8 3 -4 39 -10 80 -13 44 -3 62 -3 44 2 -18 4 -40
12 -50 16 -11 4 -26 9 -34 10 -36 5 -86 18 -95 25 -5 5 -30 16 -55 26 -25 10
-74 35 -109 57 -50 32 -60 42 -47 49 9 5 21 28 27 52 6 25 16 43 25 43 8 0 14
-6 14 -14z m140 7 c8 -5 11 -10 5 -10 -5 0 -17 5 -25 10 -8 5 -10 10 -5 10 6
0 17 -5 25 -10z m-195 -39 c-4 -17 -10 -31 -15 -31 -4 0 -3 16 3 35 13 42 22
39 12 -4z m275 7 c10 -6 7 -7 -10 -2 -14 3 -32 11 -40 16 -10 6 -7 7 10 2 14
-3 32 -11 40 -16z m65 -28 c3 -6 -1 -7 -9 -4 -18 7 -21 14 -7 14 6 0 13 -4 16
-10z m-360 -75 c29 -30 50 -55 46 -55 -17 0 -115 67 -129 88 -13 20 -13 22 7
22 13 0 43 -22 76 -55z m-1307 23 c-5 -14 -68 -54 -68 -43 0 9 52 55 62 55 5
0 8 -6 6 -12z m2030 -35 c2 -8 -6 -13 -22 -13 -25 0 -33 10 -19 24 10 10 36 3
41 -11z m-1993 -62 c-6 -5 -25 10 -25 20 0 5 6 4 14 -3 8 -7 12 -15 11 -17z
m133 -35 c-4 -5 -9 -8 -10 -5 -2 2 -11 20 -21 39 l-18 35 29 -30 c15 -16 25
-34 20 -39z m952 30 c0 -2 -8 -10 -17 -17 -16 -13 -17 -12 -4 4 13 16 21 21
21 13z m-589 -39 c-10 -9 -11 -8 -5 6 3 10 9 15 12 12 3 -3 0 -11 -7 -18z m74
13 c-3 -5 -13 -10 -21 -10 -8 0 -12 5 -9 10 3 6 13 10 21 10 8 0 12 -4 9 -10z
m740 -10 c3 -5 -3 -10 -14 -10 -17 0 -21 -6 -21 -30 0 -16 -4 -30 -8 -30 -5 0
-17 -19 -28 -42 -21 -46 -58 -88 -78 -88 -17 0 -76 -30 -76 -38 0 -4 16 -16
35 -26 19 -11 35 -23 35 -28 0 -5 -4 -7 -9 -4 -5 4 -10 -46 -10 -118 -1 -99 2
-126 14 -136 12 -10 19 -9 39 3 13 9 36 18 51 21 15 3 36 13 46 22 11 10 19
12 19 6 0 -7 -4 -12 -10 -12 -16 0 -80 -72 -73 -83 4 -6 0 -8 -10 -4 -11 4
-30 -6 -57 -32 -22 -21 -40 -37 -40 -37 0 1 -36 -33 -80 -75 -74 -70 -82 -81
-92 -133 -10 -48 -10 -60 5 -91 22 -46 21 -52 -3 -30 -26 24 -35 91 -19 159
11 49 10 58 -4 74 -19 21 -22 45 -8 71 23 43 40 205 31 295 -8 77 -7 92 8 112
9 13 28 24 41 24 18 0 21 3 12 13 -8 11 -5 13 18 9 17 -2 34 3 45 13 9 10 36
33 58 52 23 19 59 58 79 86 66 91 90 110 104 87z m673 -7 c-16 -3 -30 -12 -34
-25 -6 -20 -7 -20 -16 -3 -13 22 5 35 47 33 29 -1 29 -1 3 -5z m-1395 -10 c-7
-2 -19 -2 -25 0 -7 3 -2 5 12 5 14 0 19 -2 13 -5z m437 -6 c0 -2 -12 -14 -27
-28 l-28 -24 24 28 c23 25 31 32 31 24z m901 -24 c6 -60 33 -93 76 -93 13 0
22 -4 19 -8 -3 -5 -22 -6 -42 -3 -29 5 -41 14 -55 41 -21 38 -25 70 -9 70 6 0
10 -3 11 -7z m97 -30 c-4 -46 -23 -42 -24 5 -1 21 4 32 13 32 10 0 13 -10 11
-37z m-1188 -161 c0 -15 -2 -15 -10 -2 -13 20 -13 33 0 25 6 -3 10 -14 10 -23z
m513 -189 c2 -5 -4 -16 -15 -25 -17 -17 -18 -17 -18 7 0 23 23 36 33 18z m111
-99 c18 -17 22 -84 6 -84 -5 0 -10 14 -10 31 0 17 -5 39 -10 50 -13 23 -7 25
14 3z m-54 -106 c0 -17 -15 -7 -27 18 -12 26 -12 26 7 9 11 -10 20 -22 20 -27z
m-330 -402 c0 -9 -50 -12 -62 -5 -8 6 1 9 25 9 20 0 37 -2 37 -4z"/>
<path d="M3830 3108 c0 -9 5 -20 10 -23 13 -8 13 5 0 25 -8 13 -10 13 -10 -2z"/>
<path d="M3985 3000 c3 -5 8 -10 11 -10 2 0 4 5 4 10 0 6 -5 10 -11 10 -5 0
-7 -4 -4 -10z"/>
<path d="M4220 2983 c0 -6 9 -21 21 -34 l20 -24 -17 30 c-24 39 -24 40 -24 28z"/>
<path d="M3580 2380 c-13 -9 -13 -10 0 -10 8 0 22 5 30 10 13 9 13 10 0 10 -8
0 -22 -5 -30 -10z"/>
<path d="M3398 3523 c6 -2 18 -2 25 0 6 3 1 5 -13 5 -14 0 -19 -2 -12 -5z"/>
<path d="M3318 3513 c7 -3 16 -2 19 1 4 3 -2 6 -13 5 -11 0 -14 -3 -6 -6z"/>
<path d="M3228 3503 c6 -2 18 -2 25 0 6 3 1 5 -13 5 -14 0 -19 -2 -12 -5z"/>
<path d="M1995 3491 c-10 -17 4 -31 28 -31 16 0 18 3 9 9 -8 4 -13 12 -12 17
2 13 -17 17 -25 5z"/>
<path d="M3158 3493 c7 -3 16 -2 19 1 4 3 -2 6 -13 5 -11 0 -14 -3 -6 -6z"/>
<path d="M4700 3484 c-25 -9 -49 -20 -54 -25 -15 -13 6 -11 40 4 16 8 40 19
54 25 37 16 12 13 -40 -4z"/>
<path d="M1980 3450 c0 -5 5 -10 11 -10 5 0 7 5 4 10 -3 6 -8 10 -11 10 -2 0
-4 -4 -4 -10z"/>
<path d="M4563 3440 c-13 -5 -23 -12 -23 -15 0 -9 16 -5 36 10 22 16 19 18
-13 5z"/>
<path d="M1560 3396 c0 -2 7 -6 15 -10 8 -3 15 -1 15 4 0 6 -7 10 -15 10 -8 0
-15 -2 -15 -4z"/>
<path d="M1555 3320 c-8 -14 13 -22 31 -12 14 8 14 10 -5 15 -11 3 -23 1 -26
-3z"/>
<path d="M1750 3209 c0 -5 5 -7 10 -4 6 3 10 8 10 11 0 2 -4 4 -10 4 -5 0 -10
-5 -10 -11z"/>
<path d="M1630 3186 c0 -2 7 -7 16 -10 8 -3 12 -2 9 4 -6 10 -25 14 -25 6z"/>
<path d="M1675 2850 c3 -5 10 -10 16 -10 5 0 9 5 9 10 0 6 -7 10 -16 10 -8 0
-12 -4 -9 -10z"/>
<path d="M1750 2849 c0 -5 5 -7 10 -4 6 3 10 8 10 11 0 2 -4 4 -10 4 -5 0 -10
-5 -10 -11z"/>
<path d="M1894 2745 c-10 -8 -14 -14 -9 -14 6 0 19 6 29 14 11 8 15 15 10 15
-6 0 -19 -7 -30 -15z"/>
<path d="M3151 2714 c0 -11 3 -14 6 -6 3 7 2 16 -1 19 -3 4 -6 -2 -5 -13z"/>
<path d="M2182 2356 c1 -14 5 -23 9 -20 7 4 0 44 -7 44 -2 0 -3 -11 -2 -24z"/>
<path d="M2483 2200 c0 -25 2 -35 4 -22 2 12 2 32 0 45 -2 12 -4 2 -4 -23z"/>
<path d="M2189 2098 c0 -62 -3 -126 -5 -143 -3 -23 -2 -26 6 -15 5 8 10 11 10
5 0 -5 5 -4 11 2 13 13 1 263 -12 263 -5 0 -9 -51 -10 -112z"/>
<path d="M1879 2162 c-1 -31 -2 -33 -8 -13 -4 14 -13 27 -20 29 -8 3 -12 -1
-9 -9 3 -8 1 -22 -4 -31 -6 -12 -5 -18 2 -18 6 0 10 -6 9 -12 -4 -30 4 -191 8
-173 3 11 9 24 14 30 13 13 12 -67 -1 -101 -15 -38 -2 -144 17 -144 10 0 12 6
8 20 -5 14 -2 20 9 20 14 0 16 26 16 214 0 205 -1 214 -20 219 -17 4 -20 0
-21 -31z m8 -314 c-3 -8 -6 -5 -6 6 -1 11 2 17 5 13 3 -3 4 -12 1 -19z"/>
<path d="M2065 2190 c-11 -5 -32 -9 -47 -9 -29 -1 -36 -19 -16 -39 9 -9 9 -12
0 -12 -9 0 -12 -51 -12 -199 0 -110 3 -206 6 -215 4 -11 19 -16 48 -16 27 0
36 -3 27 -9 -9 -6 -10 -11 -2 -15 6 -4 11 -13 11 -19 0 -7 -4 -6 -10 3 -8 13
-10 12 -10 -3 0 -10 -4 -16 -9 -13 -11 7 -4 -154 9 -169 6 -7 6 -15 0 -21 -6
-6 12 -11 50 -12 61 -3 76 8 49 35 -7 7 -10 113 -9 326 0 173 -2 333 -6 356
-6 36 -10 41 -33 40 -14 0 -35 -4 -46 -9z m2 -682 c-3 -7 -5 -2 -5 12 0 14 2
19 5 13 2 -7 2 -19 0 -25z"/>
<path d="M2233 2120 c0 -47 2 -66 4 -42 2 23 2 61 0 85 -2 23 -4 4 -4 -43z"/>
<path d="M1730 2027 c0 -103 3 -156 10 -152 6 3 10 22 10 41 0 19 5 34 10 34
6 0 10 43 10 109 l0 108 33 10 c30 9 29 10 -20 9 l-53 -1 0 -158z"/>
<path d="M1934 1975 c0 -121 2 -169 3 -107 2 62 2 161 0 220 -1 59 -3 8 -3
-113z"/>
<path d="M1699 2148 l-1 -33 -8 30 c-7 27 -8 25 -9 -17 0 -27 3 -48 8 -48 6 0
12 -15 14 -32 2 -18 5 4 5 50 1 45 0 82 -3 82 -3 0 -6 -15 -6 -32z"/>
<path d="M1610 2121 c0 -46 16 -56 23 -13 3 22 4 20 6 -10 2 -57 21 -46 21 12
0 28 -4 50 -10 50 -5 0 -10 -5 -10 -11 0 -8 -5 -8 -15 1 -13 11 -15 7 -15 -29z"/>
<path d="M1409 2143 c-3 -25 3 -368 7 -372 2 -2 4 82 4 187 0 106 -2 192 -5
192 -3 0 -5 -3 -6 -7z"/>
<path d="M1442 2008 c1 -79 3 -123 5 -98 13 197 15 210 29 210 11 0 14 -21 14
-105 0 -63 4 -105 10 -105 6 0 10 41 10 104 0 82 3 108 16 120 14 15 11 16
-35 16 l-51 0 2 -142z"/>
<path d="M1293 2133 c-10 -4 -13 -53 -12 -206 1 -111 5 -215 8 -232 14 -55 22
67 19 261 -2 139 -6 180 -15 177z"/>
<path d="M1322 1973 c5 -301 23 -312 33 -20 6 186 6 187 -15 187 -21 0 -22 -3
-18 -167z"/>
<path d="M1372 2120 c0 -14 2 -19 5 -12 2 6 2 18 0 25 -3 6 -5 1 -5 -13z"/>
<path d="M1195 2121 l-50 -6 4 -185 c3 -166 5 -187 22 -203 25 -24 24 -41 -6
-73 -25 -27 -34 -89 -19 -128 10 -25 43 -19 50 9 3 14 11 25 16 25 5 0 7 13 3
29 -3 17 -2 32 4 36 6 3 11 -1 11 -9 0 -24 14 -19 28 11 8 19 12 96 12 265 0
185 -3 238 -12 236 -7 0 -35 -4 -63 -7z m31 -338 c-11 -11 -19 6 -11 24 8 17
8 17 12 0 3 -10 2 -21 -1 -24z"/>
<path d="M1112 1930 c0 -113 3 -190 9 -190 11 0 12 367 1 374 -5 3 -9 -80 -10
-184z"/>
<path d="M2441 2110 c-2 -8 -3 -18 -2 -22 0 -5 -4 -8 -9 -8 -7 0 -10 -102 -10
-304 1 -342 13 -447 24 -216 7 138 4 582 -3 550z"/>
<path d="M2477 2112 c-11 -16 -7 -673 3 -667 6 4 8 10 5 15 -3 4 0 10 5 12 8
2 8 21 3 58 -5 30 -5 73 -1 95 6 35 0 485 -7 493 -2 2 -5 -1 -8 -6z"/>
<path d="M283 2074 c21 -20 41 -33 44 -31 6 7 -58 66 -72 66 -5 0 7 -16 28
-35z"/>
<path d="M988 1924 l-1 -189 -7 177 c-3 97 -8 179 -11 182 -3 3 -36 3 -73 -1
-56 -5 -69 -10 -76 -27 -9 -20 -9 -20 -9 -1 -1 19 -4 20 -81 11 l-80 -10 0
-157 c0 -130 3 -158 15 -163 8 -3 15 -15 15 -26 0 -11 -7 -23 -15 -26 -13 -5
-15 -35 -15 -185 l0 -179 44 0 44 0 0 94 c1 90 0 94 -22 100 -13 3 -26 15 -29
26 -4 17 0 20 24 20 l29 0 0 197 c0 108 2 194 5 192 2 -3 5 -127 7 -277 l2
-272 23 0 c20 0 23 5 24 38 1 20 5 116 8 212 l7 175 2 -201 c1 -110 5 -204 8
-207 4 -3 15 -2 25 4 11 6 19 6 19 0 0 -5 -11 -12 -25 -15 -14 -4 -25 -11 -25
-17 0 -6 8 -8 18 -5 16 6 16 5 0 -8 -30 -23 -20 -29 40 -21 64 8 104 24 62 25
-23 1 -24 2 -7 14 22 17 22 26 -3 26 -11 0 -20 5 -20 10 0 6 14 10 30 10 32 0
37 9 18 28 -9 9 -9 12 1 12 9 0 12 9 9 25 -3 14 -1 25 3 25 5 0 8 3 8 8 -1 4
0 34 1 67 2 33 5 48 7 34 3 -21 11 -28 38 -33 18 -4 36 -14 40 -24 6 -16 7
-16 16 0 5 10 9 34 9 55 0 21 1 47 2 58 5 41 3 384 -2 388 -3 3 -26 8 -52 12
l-48 7 -2 -188z m-70 -437 c4 -19 -6 -21 -27 -8 -16 10 -5 34 12 28 7 -2 13
-11 15 -20z"/>
<path d="M1586 2095 c-3 -8 -1 -15 4 -15 6 0 10 7 10 15 0 8 -2 15 -4 15 -2 0
-6 -7 -10 -15z"/>
<path d="M1372 2060 c0 -14 2 -19 5 -12 2 6 2 18 0 25 -3 6 -5 1 -5 -13z"/>
<path d="M1641 2008 c-7 -26 -9 -28 -10 -10 -1 30 -21 28 -21 -3 0 -19 5 -25
23 -25 12 0 18 -4 12 -8 -16 -11 -17 -34 -3 -43 10 -7 10 -9 1 -9 -7 0 -13 -4
-13 -8 0 -5 7 -9 15 -9 12 0 15 15 15 74 0 40 -2 73 -5 73 -2 0 -9 -15 -14
-32z"/>
<path d="M1684 1925 c0 -66 1 -92 3 -57 2 34 2 88 0 120 -2 31 -3 3 -3 -63z"/>
<path d="M2233 1990 c0 -25 2 -35 4 -22 2 12 2 32 0 45 -2 12 -4 2 -4 -23z"/>
<path d="M2731 1995 c0 -11 6 -29 14 -39 19 -25 19 -17 0 25 -10 24 -14 28
-14 14z"/>
<path d="M4811 1930 c-55 -12 -118 -49 -170 -100 -61 -61 -74 -93 -79 -196 -4
-77 -1 -98 17 -139 25 -57 37 -55 17 2 -19 53 -22 148 -8 198 7 22 26 56 44
77 18 20 44 49 58 65 35 42 85 63 160 69 54 5 63 3 50 -8 -10 -9 -14 -28 -12
-58 2 -42 0 -47 -35 -69 -21 -14 -60 -36 -88 -50 -63 -31 -62 -30 -45 -41 9
-6 20 -4 30 3 8 7 44 26 80 42 93 42 101 50 93 98 l-6 39 42 -4 c37 -3 41 -1
41 19 0 47 -91 73 -189 53z"/>
<path d="M3335 1850 c10 -11 20 -20 23 -20 3 0 -3 9 -13 20 -10 11 -20 20 -23
20 -3 0 3 -9 13 -20z"/>
<path d="M4042 1828 c-14 -14 -16 -38 -3 -38 8 0 23 41 17 47 -1 1 -8 -3 -14
-9z"/>
<path d="M3725 1799 c85 -19 93 -20 60 -4 -16 8 -46 14 -65 14 l-35 -1 40 -9z"/>
<path d="M4060 1784 c0 -22 4 -25 27 -22 19 2 29 10 31 23 l4 20 -16 -20 c-15
-20 -15 -20 -16 3 0 13 -6 22 -15 22 -9 0 -15 -10 -15 -26z"/>
<path d="M3759 1753 c-1 -10 -3 -25 -4 -33 -1 -8 -3 -21 -4 -27 0 -7 -6 -13
-12 -13 -5 0 -7 5 -4 10 10 15 -40 3 -100 -26 l-50 -23 -17 20 -18 21 0 -22
c0 -13 -5 -40 -12 -62 -9 -32 -9 -41 1 -48 11 -6 11 -9 0 -13 -11 -5 -10 -9 4
-20 9 -8 17 -21 17 -30 0 -41 22 -65 67 -72 28 -4 49 -2 58 5 8 6 31 10 52 9
21 -1 48 1 61 5 14 5 29 3 37 -4 11 -9 16 -7 25 9 6 12 17 21 25 21 8 0 15 7
15 15 0 9 11 20 25 25 24 9 35 40 14 40 -6 0 -3 7 6 16 12 13 13 19 4 24 -7 5
-10 19 -6 38 5 27 4 29 -16 25 -19 -4 -20 -3 -4 7 25 16 21 29 -20 66 -30 27
-40 31 -52 21 -11 -9 -13 -9 -8 0 9 15 -22 33 -57 33 -18 0 -26 -6 -27 -17z"/>
<path d="M3535 1730 c-16 -16 -25 -30 -19 -29 8 0 60 59 52 59 -3 0 -17 -13
-33 -30z"/>
<path d="M4653 1745 c-8 -8 -13 -40 -13 -74 0 -33 -5 -72 -10 -86 -8 -20 -7
-26 2 -23 7 3 14 24 16 48 2 24 10 59 19 77 18 40 8 82 -14 58z"/>
<path d="M4987 1693 c-4 -3 -7 -16 -7 -28 0 -27 -30 -56 -95 -90 -27 -14 -50
-31 -50 -38 0 -7 26 -17 59 -24 95 -18 99 -37 16 -69 -72 -27 -119 -28 -173
-5 -62 27 -64 26 -36 -4 13 -13 32 -25 41 -25 9 0 20 -5 24 -11 8 -14 153 -3
212 16 21 7 22 11 22 146 0 77 -1 139 -3 139 -2 0 -7 -3 -10 -7z"/>
<path d="M1998 1673 c-2 -10 -3 -58 -2 -108 4 -122 4 -126 13 -120 11 6 12
245 1 245 -4 0 -10 -8 -12 -17z"/>
<path d="M3495 1679 c-4 -6 -5 -12 -2 -15 2 -3 7 2 10 11 7 17 1 20 -8 4z"/>
<path d="M318 1663 c18 -3 23 -10 19 -24 -3 -10 -1 -17 4 -13 5 3 9 14 9 25 0
14 -6 19 -27 18 -25 -2 -26 -2 -5 -6z"/>
<path d="M286 1635 c4 -8 8 -15 10 -15 2 0 4 7 4 15 0 8 -4 15 -10 15 -5 0 -7
-7 -4 -15z"/>
<path d="M3476 1635 c-3 -9 -5 -51 -4 -93 l1 -77 7 90 c7 95 6 106 -4 80z"/>
<path d="M994 1584 c3 -8 6 -18 6 -20 0 -2 5 -4 10 -4 16 0 11 27 -6 34 -12 5
-15 2 -10 -10z"/>
<path d="M1060 1555 c0 -8 -4 -15 -9 -15 -5 0 -11 -10 -13 -22 -2 -16 -9 -22
-21 -20 -19 3 -31 -17 -25 -43 3 -15 6 -14 27 4 13 12 31 21 40 20 10 0 8 -3
-6 -9 -30 -12 -29 -18 2 -12 24 4 26 8 23 58 -2 30 -6 54 -10 54 -5 0 -8 -7
-8 -15z"/>
<path d="M3973 1515 c0 -33 2 -45 4 -27 2 18 2 45 0 60 -2 15 -4 0 -4 -33z"/>
<path d="M320 1450 c0 -5 5 -10 10 -10 6 0 10 5 10 10 0 6 -4 10 -10 10 -5 0
-10 -4 -10 -10z"/>
<path d="M4620 1427 c0 -2 15 -16 33 -33 l32 -29 -29 33 c-28 30 -36 37 -36
29z"/>
<path d="M139 1392 c11 -8 11 -11 0 -16 -8 -3 -5 -5 6 -3 24 3 23 21 -2 25
-14 2 -15 1 -4 -6z"/>
<path d="M750 1370 c0 -21 8 -24 34 -14 25 10 19 34 -9 34 -18 0 -25 -5 -25
-20z"/>
<path d="M50 1346 c0 -8 -10 -16 -22 -18 l-23 -3 -3 -447 c-2 -447 -2 -447 19
-459 12 -6 35 -9 52 -6 23 3 36 -1 49 -17 17 -20 19 -20 32 -3 14 19 43 22 66
7 11 -7 9 -11 -13 -19 -30 -12 -32 -18 -17 -55 8 -23 6 -28 -20 -41 -17 -9
-30 -20 -30 -25 0 -15 28 -12 63 6 18 9 38 20 46 24 21 9 26 30 7 30 -11 0
-15 9 -14 35 1 33 18 52 18 20 0 -8 7 -15 15 -15 10 0 15 -7 13 -17 -2 -13 2
-17 17 -14 17 4 102 3 270 -3 29 -1 40 3 40 14 0 27 -194 41 -264 19 -27 -9
-36 -8 -48 4 -21 20 -9 35 32 43 20 3 38 10 41 15 8 13 58 11 123 -5 31 -8 94
-17 141 -21 47 -4 118 -18 158 -32 61 -21 78 -23 99 -14 24 11 149 4 261 -15
52 -8 37 -24 -23 -24 -79 0 -68 -17 16 -25 68 -7 72 -6 100 21 25 24 37 28 87
28 91 -1 296 -19 311 -29 22 -13 -20 -25 -69 -19 -22 3 -48 0 -58 -5 -22 -13
153 -14 183 -1 11 5 16 9 11 9 -5 1 -3 8 4 16 18 21 103 44 175 46 33 1 71 6
85 11 14 6 43 13 65 18 36 7 34 8 -29 9 -78 1 -77 12 2 29 83 19 138 16 155
-8 13 -18 19 -19 67 -10 29 5 78 10 108 10 31 0 89 9 129 21 58 16 77 18 88 9
30 -25 287 36 432 101 24 10 50 19 58 19 9 0 29 7 45 15 36 18 104 10 77 -10
-9 -7 -55 -24 -102 -40 -47 -15 -85 -31 -85 -36 0 -5 24 0 53 11 28 11 58 20
65 20 12 0 146 56 205 86 31 15 58 17 106 8 61 -13 36 -39 -101 -106 -43 -20
-78 -39 -78 -42 0 -6 135 48 172 69 14 8 28 15 31 15 3 0 11 -23 17 -51 27
-111 48 -153 102 -201 28 -27 56 -48 61 -48 5 0 -5 12 -22 26 -17 14 -31 33
-31 42 0 15 14 17 112 17 103 0 118 2 168 27 30 15 77 47 105 72 27 24 53 42
58 39 12 -7 3 -83 -14 -114 -18 -34 -78 -85 -126 -109 -49 -25 -21 -25 32 -1
53 25 88 64 121 135 24 52 26 67 21 132 -4 59 -13 87 -43 145 -21 40 -40 67
-42 60 -6 -19 -41 -12 -52 10 -15 27 -6 36 17 18 17 -13 17 -13 4 4 -13 16
-101 67 -116 67 -3 0 0 -6 7 -14 7 -8 16 -12 21 -9 4 2 -14 -18 -40 -45 -29
-29 -67 -55 -95 -66 -26 -10 -50 -22 -53 -27 -4 -5 -17 -9 -31 -9 -13 0 -24
-6 -24 -12 0 -7 -11 0 -24 15 -14 16 -29 26 -34 23 -11 -7 -27 -46 -42 -104
-12 -47 -33 -52 -38 -9 -4 31 52 164 79 186 10 9 30 39 44 66 l25 50 -6 -37
c-6 -37 2 -47 21 -29 6 4 31 16 58 26 l47 18 -2 46 -1 46 -4 -41 c-4 -44 -17
-54 -70 -54 -21 0 -23 5 -23 49 0 28 -5 53 -10 56 -6 4 -22 30 -37 58 -14 29
-34 58 -44 65 -11 7 -19 20 -19 28 0 9 -5 12 -11 8 -6 -3 -34 16 -62 44 -53
51 -90 71 -101 53 -4 -6 2 -15 13 -20 10 -6 22 -22 25 -36 3 -13 20 -38 36
-55 34 -34 39 -53 13 -48 -10 2 -17 10 -15 17 2 10 -4 12 -20 7 -13 -3 -33 -6
-45 -6 l-21 0 19 -51 c13 -35 18 -62 13 -83 -9 -41 -46 -114 -51 -99 -2 6 5
28 16 49 12 21 21 51 21 65 0 30 -26 99 -38 99 -4 0 -7 -31 -7 -70 0 -43 -5
-74 -13 -82 -10 -10 -12 -2 -6 43 4 39 3 59 -5 64 -17 10 -22 2 -28 -44 -5
-33 -8 -39 -19 -30 -8 6 -14 23 -15 38 l0 26 -10 -24 c-6 -15 -6 -28 0 -35 6
-8 6 -17 -1 -26 -8 -12 -9 -12 -4 3 3 9 1 17 -4 17 -6 0 -10 -6 -10 -14 0 -15
-65 -76 -81 -76 -6 0 -8 -4 -4 -9 3 -5 0 -13 -6 -17 -8 -4 -9 -3 -5 4 9 15 1
15 -24 0 -29 -18 -50 4 -27 29 10 12 13 24 8 32 -7 11 -10 9 -16 -8 -3 -11
-12 -21 -19 -21 -8 0 -19 -7 -26 -15 -13 -15 -5 -20 28 -16 6 1 12 -3 12 -9 0
-5 8 -10 18 -11 14 0 14 -2 -3 -9 -11 -5 -27 -9 -35 -9 -13 -1 -13 0 0 10 12
8 10 9 -10 5 -14 -3 -34 -6 -46 -6 -11 0 -30 -9 -43 -21 -21 -20 -23 -20 -41
-4 -18 17 -21 16 -60 -4 -22 -11 -49 -21 -59 -21 -19 0 -136 -38 -193 -63 -67
-29 -84 -33 -113 -27 l-30 6 35 11 c19 6 62 19 95 29 33 9 67 21 75 25 8 4 23
10 33 13 10 3 16 10 13 15 -3 4 15 11 39 14 32 3 53 12 69 30 15 16 20 27 13
30 -7 2 3 7 22 12 25 5 30 10 20 16 -10 6 -6 9 14 9 17 0 27 5 27 15 0 8 -7
15 -15 15 -8 0 -15 5 -15 11 0 6 7 9 15 5 8 -3 15 -1 15 4 0 5 -8 10 -17 12
-16 3 -15 6 7 28 25 25 38 70 20 70 -5 0 -10 -11 -10 -25 0 -14 -5 -24 -12
-23 -6 2 -16 -16 -22 -38 -8 -31 -14 -39 -22 -30 -6 6 -9 17 -8 24 1 7 0 8 -3
2 -8 -18 -40 -11 -46 10 -3 11 -1 23 4 26 5 3 9 10 9 15 0 6 -7 4 -15 -5 -9
-8 -12 -22 -8 -32 4 -12 3 -15 -5 -10 -8 4 -10 2 -6 -8 3 -8 18 -17 32 -19 22
-3 20 -4 -9 -6 -43 -1 -96 -26 -112 -52 -6 -10 -20 -19 -30 -19 -14 0 -17 -5
-12 -21 5 -16 3 -20 -12 -19 -38 4 -74 0 -69 -9 7 -10 -17 -21 -45 -21 -11 0
-39 -9 -62 -21 -42 -20 -146 -42 -292 -60 -44 -5 -89 -14 -100 -19 -31 -14
-81 -21 -195 -28 l-105 -7 3 -28 c3 -20 -2 -33 -16 -43 -13 -9 -18 -21 -15
-39 7 -32 -10 -52 -39 -49 -13 1 -31 3 -40 3 -11 1 -18 9 -18 21 0 15 -7 20
-24 20 -14 0 -28 5 -31 10 -4 6 11 10 37 10 28 0 38 3 29 9 -18 11 -5 31 20
31 19 0 26 24 11 46 -4 7 -42 12 -94 13 -86 1 -86 1 -96 -26 -10 -27 -11 -28
-17 -5 -5 16 -15 22 -36 22 -15 0 -30 4 -33 9 -3 5 -43 9 -88 10 -46 0 -101 3
-123 6 -22 3 -60 7 -85 9 -25 2 -85 9 -135 15 -49 6 -109 13 -133 15 -23 3
-49 12 -58 20 -8 9 -26 17 -40 18 -13 1 -37 2 -52 3 -35 2 -161 44 -187 61
-11 8 -26 14 -33 14 -8 0 -36 16 -62 35 -54 39 -86 105 -75 153 9 43 71 93
168 137 81 36 87 41 85 67 -1 15 -3 28 -4 28 -12 0 -73 -26 -85 -37 -9 -7 -27
-12 -40 -9 -13 2 -31 -2 -39 -9 -8 -7 -40 -18 -70 -25 -98 -22 -178 -80 -219
-161 -27 -54 35 -168 109 -199 17 -7 30 -16 30 -21 0 -13 -14 -11 -29 4 -11
10 -13 10 -7 0 9 -16 7 -16 -33 -2 -17 6 -31 15 -31 20 0 4 8 6 18 2 11 -4 8
2 -9 19 -15 14 -39 43 -54 66 -22 33 -25 47 -20 74 13 62 71 139 115 153 11 3
20 11 20 16 0 30 -118 -67 -144 -118 -27 -54 -16 -101 41 -173 l27 -35 -34 30
c-19 17 -40 36 -48 43 -14 12 -31 70 -32 104 0 9 10 29 23 45 22 26 24 37 26
196 1 92 0 167 -3 167 -3 0 -6 -6 -6 -14z m2920 -608 c11 -4 8 -9 -12 -16 -14
-6 -29 -16 -33 -22 -4 -6 -13 -9 -21 -6 -8 3 -14 1 -14 -5 0 -6 -4 -7 -10 -4
-15 10 -12 35 5 35 8 0 15 5 15 10 0 6 7 10 15 10 8 0 15 8 15 18 1 15 2 15
13 1 7 -9 19 -18 27 -21z m258 -5 c-21 -20 -41 -33 -45 -29 -4 5 0 13 10 20
10 6 28 19 39 29 37 30 34 18 -4 -20z m-3154 -18 c3 -8 1 -15 -4 -15 -6 0 -10
7 -10 15 0 8 2 15 4 15 2 0 6 -7 10 -15z m2621 -35 c-3 -5 -10 -10 -16 -10 -5
0 -9 5 -9 10 0 6 7 10 16 10 8 0 12 -4 9 -10z m-2496 -16 c10 -9 -45 -3 -59 6
-11 7 -5 8 20 4 19 -4 37 -8 39 -10z m246 6 c25 -11 -1 -11 -35 0 -20 6 -21 8
-5 8 11 0 29 -3 40 -8z m1932 -6 c-3 -3 -12 -4 -19 -1 -8 3 -5 6 6 6 11 1 17
-2 13 -5z m340 -30 c-3 -3 -12 -4 -19 -1 -8 3 -5 6 6 6 11 1 17 -2 13 -5z
m-189 -19 c18 -6 15 -25 -5 -26 -10 -1 9 -7 42 -14 33 -7 53 -13 45 -14 -31
-3 -136 -20 -160 -26 -14 -4 -50 -8 -80 -10 -47 -3 -52 -2 -37 9 15 12 25 46
12 46 -2 0 -19 -9 -37 -20 -26 -16 -29 -20 -15 -26 27 -10 20 -24 -13 -24 -30
0 -40 13 -20 25 18 11 0 25 -31 25 -16 0 -29 5 -29 11 0 5 4 8 9 5 5 -4 20 -2
34 3 13 5 44 12 68 14 24 3 57 10 72 16 16 6 40 8 55 5 21 -4 24 -3 12 6 -12
8 -6 9 25 5 22 -4 46 -8 53 -10z m82 -5 c0 -5 -9 -10 -20 -10 -11 0 -20 5 -20
10 0 6 9 10 20 10 11 0 20 -4 20 -10z m-353 -6 c-3 -3 -12 -4 -19 -1 -8 3 -5
6 6 6 11 1 17 -2 13 -5z m658 -25 c0 -9 -25 -19 -70 -30 -38 -9 -91 -26 -117
-38 -26 -11 -54 -18 -62 -15 -9 3 -16 1 -16 -5 0 -6 -10 -11 -22 -11 -13 0
-45 -7 -72 -15 -27 -8 -59 -15 -70 -14 -17 0 -16 3 9 14 17 8 39 14 50 15 11
0 27 5 35 10 12 8 13 13 3 29 -12 18 -9 21 25 31 20 5 51 10 67 10 39 0 206
28 213 35 10 9 27 -1 27 -16z m-747 4 c-10 -2 -26 -2 -35 0 -10 3 -2 5 17 5
19 0 27 -2 18 -5z m527 -3 c-3 -5 -21 -10 -38 -9 -31 1 -31 1 -7 9 36 11 52
11 45 0z m-659 -22 c-2 -20 -10 -23 -49 -26 -57 -4 -63 -22 -7 -22 22 0 40 -4
40 -9 0 -5 7 -17 16 -25 18 -18 13 -21 -48 -29 -41 -6 -68 14 -68 52 0 18 -5
21 -26 19 -15 -2 -29 3 -31 10 -3 7 6 12 24 13 22 1 24 3 8 7 -23 7 59 29 112
31 29 1 32 -2 29 -21z m154 -14 c0 -16 -37 -19 -59 -5 -22 14 -5 28 29 23 17
-2 30 -10 30 -18z m-749 -25 c11 -11 18 -23 15 -26 -2 -3 -29 -2 -58 3 -47 7
-50 8 -23 14 17 3 29 11 28 18 -4 19 15 14 38 -9z m384 1 c-3 -5 -13 -10 -21
-10 -8 0 -12 5 -9 10 3 6 13 10 21 10 8 0 12 -4 9 -10z m-797 -7 c-10 -2 -26
-2 -35 0 -10 3 -2 5 17 5 19 0 27 -2 18 -5z m57 -3 c-3 -5 -13 -10 -21 -10 -8
0 -14 5 -14 10 0 6 9 10 21 10 11 0 17 -4 14 -10z m215 -29 c0 -16 -6 -31 -12
-34 -25 -8 -48 5 -48 27 0 29 8 36 37 36 19 0 23 -5 23 -29z m1035 -19 c-3 -3
-11 0 -18 7 -9 10 -8 11 6 5 10 -3 15 -9 12 -12z m-1335 -51 c0 -12 -93 -25
-120 -16 -11 3 -18 11 -15 16 8 12 135 12 135 0z"/>
<path d="M2390 600 c-9 -6 -10 -10 -3 -10 6 0 15 5 18 10 8 12 4 12 -15 0z"/>
<path d="M673 1313 c9 -2 23 -2 30 0 6 3 -1 5 -18 5 -16 0 -22 -2 -12 -5z"/>
<path d="M3175 1260 c33 -11 73 -26 88 -36 31 -18 47 -13 28 10 -16 19 -102
46 -143 45 -29 -1 -25 -3 27 -19z"/>
<path d="M777 1239 c7 -7 15 -10 18 -7 3 3 -2 9 -12 12 -14 6 -15 5 -6 -5z"/>
<path d="M685 1231 c-27 -6 -31 -12 -26 -40 0 -5 10 -7 21 -4 11 3 17 10 14
15 -3 5 0 9 7 7 28 -3 39 1 39 16 0 16 -7 17 -55 6z"/>
<path d="M360 1210 c-10 -19 -10 -20 9 -8 22 13 28 28 11 28 -5 0 -14 -9 -20
-20z"/>
<path d="M580 1211 c-9 -3 -15 -12 -14 -18 1 -7 2 -18 3 -25 1 -8 6 -7 17 4
20 19 15 48 -6 39z"/>
<path d="M620 1195 c0 -14 5 -25 10 -25 6 0 10 11 10 25 0 14 -4 25 -10 25 -5
0 -10 -11 -10 -25z"/>
<path d="M3780 1166 c0 -2 13 -6 29 -8 17 -2 28 -1 25 4 -5 8 -54 12 -54 4z"/>
<path d="M948 1153 c7 -3 16 -2 19 1 4 3 -2 6 -13 5 -11 0 -14 -3 -6 -6z"/>
<path d="M858 1142 c-16 -2 -28 -8 -28 -13 0 -13 40 -10 75 6 28 13 29 13 5
12 -14 -1 -37 -3 -52 -5z"/>
<path d="M4015 1136 c74 -19 137 -28 131 -18 -3 5 -29 12 -58 15 -29 3 -69 8
-88 11 -19 3 -12 0 15 -8z"/>
<path d="M2650 1125 c0 -9 4 -14 9 -11 4 3 19 -4 32 -16 16 -14 20 -22 11 -25
-6 -3 -9 -9 -6 -15 4 -6 10 -5 15 3 7 11 9 10 9 -5 0 -12 5 -16 15 -13 8 4 17
2 20 -3 4 -6 11 -10 17 -10 7 0 6 6 -2 15 -7 8 -18 15 -25 15 -7 0 -15 7 -19
15 -3 8 -1 15 3 15 5 0 11 -5 13 -12 3 -8 12 -6 29 6 24 18 24 18 1 11 -14 -4
-32 -1 -47 9 -14 9 -25 14 -25 10 0 -3 -11 1 -25 10 -23 15 -25 15 -25 1z"/>
<path d="M783 1123 c-7 -2 -13 -15 -13 -27 0 -14 -16 -37 -40 -59 -60 -53 -56
-82 18 -130 55 -35 90 -48 77 -27 -3 5 8 2 24 -8 l31 -17 -30 -3 c-32 -3 -74
18 -143 71 -28 22 -37 35 -34 54 4 30 53 93 72 93 9 0 15 9 15 21 0 16 -4 19
-17 14 -10 -4 -26 -10 -35 -12 -10 -3 -16 -8 -13 -12 2 -4 -6 -7 -18 -7 -21 1
-22 -3 -25 -101 -3 -97 -2 -103 17 -103 11 0 38 -9 60 -21 36 -18 107 -36 293
-73 53 -10 66 -10 58 0 -8 8 -7 14 2 18 7 3 4 5 -7 3 -11 -2 -26 2 -33 9 -9
10 -6 13 16 16 24 3 22 5 -18 18 -25 7 -49 17 -54 22 -6 4 -19 8 -30 8 -12 0
-48 11 -81 25 -45 19 -61 22 -68 12 -6 -8 -7 -7 -4 5 4 10 -3 22 -17 31 -27
18 -25 66 5 93 23 21 26 49 4 40 -8 -3 -15 -1 -15 4 0 5 7 15 15 24 24 23 18
32 -12 19z m204 -289 c-3 -3 -12 -4 -19 -1 -8 3 -5 6 6 6 11 1 17 -2 13 -5z
m33 -8 c0 -3 -4 -8 -10 -11 -5 -3 -10 -1 -10 4 0 6 5 11 10 11 6 0 10 -2 10
-4z"/>
<path d="M915 1120 c-3 -5 -1 -10 4 -10 6 0 11 5 11 10 0 6 -2 10 -4 10 -3 0
-8 -4 -11 -10z"/>
<path d="M945 1120 c-3 -5 -2 -10 4 -10 5 0 13 5 16 10 3 6 2 10 -4 10 -5 0
-13 -4 -16 -10z"/>
<path d="M4170 1110 c8 -5 20 -10 25 -10 6 0 3 5 -5 10 -8 5 -19 10 -25 10 -5
0 -3 -5 5 -10z"/>
<path d="M874 1103 c4 -4 16 -8 28 -10 28 -4 18 6 -12 12 -12 2 -20 1 -16 -2z"/>
<path d="M4245 1090 c3 -5 21 -10 38 -10 24 0 28 3 17 10 -20 13 -63 13 -55 0z"/>
<path d="M388 1060 c-56 -37 -82 -65 -75 -82 4 -8 6 -7 6 5 1 9 5 17 9 17 5 0
17 8 28 18 10 10 36 28 57 41 20 12 37 25 37 27 0 10 -20 2 -62 -26z"/>
<path d="M2798 1072 c-3 -12 -2 -20 2 -17 5 3 10 -2 12 -11 3 -16 4 -16 17 -1
11 15 11 17 -2 17 -9 0 -17 8 -19 18 -3 14 -5 13 -10 -6z"/>
<path d="M820 1064 c0 -16 9 -18 28 -5 10 6 9 10 -7 14 -14 3 -21 0 -21 -9z"/>
<path d="M620 984 c0 -47 4 -73 10 -69 6 3 10 37 10 76 0 39 -4 69 -10 69 -6
0 -10 -32 -10 -76z"/>
<path d="M2836 1025 c-3 -9 0 -15 9 -15 8 0 15 7 15 15 0 8 -4 15 -9 15 -5 0
-11 -7 -15 -15z"/>
<path d="M4930 1030 c-32 -8 -36 -31 -11 -54 27 -25 51 -14 51 23 0 35 -6 40
-40 31z"/>
<path d="M2770 1006 c0 -9 5 -16 10 -16 6 0 9 -14 7 -32 -2 -18 -2 -25 0 -15
2 9 10 17 17 17 17 0 41 28 32 37 -4 4 -11 1 -17 -7 -8 -13 -13 -11 -29 9 -15
18 -20 19 -20 7z"/>
<path d="M560 989 c0 -28 19 -61 31 -54 5 4 9 22 9 41 0 27 -4 34 -20 34 -14
0 -20 -7 -20 -21z"/>
<path d="M350 975 c-10 -12 -10 -24 -1 -55 17 -56 61 -102 118 -123 26 -10 56
-23 65 -28 24 -12 256 -69 284 -69 12 0 26 5 29 10 3 6 -3 10 -14 10 -33 0
-204 42 -246 60 -168 72 -211 113 -208 198 1 17 -12 15 -27 -3z"/>
<path d="M507 961 c-4 -17 -3 -21 5 -13 5 5 8 16 6 23 -3 8 -7 3 -11 -10z"/>
<path d="M530 931 c11 -8 12 -11 2 -11 -10 0 -9 -4 2 -16 9 -8 14 -20 11 -25
-4 -5 1 -9 9 -9 25 0 27 18 4 35 -13 8 -22 19 -20 22 2 4 -2 9 -10 11 -9 2 -8
0 2 -7z"/>
<path d="M3067 933 c-4 -3 -7 -16 -6 -27 0 -19 1 -19 10 3 10 24 8 36 -4 24z"/>
<path d="M2293 895 c0 -7 6 -11 14 -8 7 3 13 6 13 8 0 2 -6 5 -13 8 -8 3 -14
-1 -14 -8z"/>
<path d="M600 881 c0 -10 19 -25 25 -20 1 2 -3 10 -11 17 -8 7 -14 8 -14 3z"/>
<path d="M654 843 c3 -8 6 -17 6 -19 0 -2 11 -2 25 2 16 4 25 2 25 -6 0 -6 5
-8 10 -5 6 3 10 -1 10 -9 0 -20 57 -30 90 -17 l25 10 -26 0 c-14 1 -29 4 -32
8 -4 4 -37 16 -73 29 -52 17 -64 19 -60 7z"/>
<path d="M2924 843 c-7 -8 -14 -20 -14 -28 0 -7 -6 -15 -12 -18 -7 -2 -11 -7
-8 -10 3 -4 21 3 39 14 29 17 31 22 19 36 -11 14 -11 16 3 11 9 -3 22 -3 28 2
9 5 3 8 -13 8 -15 0 -34 -7 -42 -15z"/>
<path d="M2185 830 c-3 -6 1 -7 9 -4 18 7 21 14 7 14 -6 0 -13 -4 -16 -10z"/>
<path d="M2248 813 c-10 -2 -18 -9 -18 -14 0 -14 16 -11 30 6 7 8 11 14 9 14
-2 -1 -12 -3 -21 -6z"/>
<path d="M2528 813 c7 -3 16 -2 19 1 4 3 -2 6 -13 5 -11 0 -14 -3 -6 -6z"/>
<path d="M1213 803 c15 -2 39 -2 55 0 15 2 2 4 -28 4 -30 0 -43 -2 -27 -4z"/>
<path d="M1115 780 c-9 -15 3 -30 20 -24 7 3 11 12 8 20 -6 16 -19 18 -28 4z"/>
<path d="M1160 771 c0 -18 6 -21 43 -21 23 0 49 -5 57 -11 11 -8 2 -9 -35 -4
-36 4 -46 3 -35 -4 8 -6 44 -10 80 -10 51 1 58 3 35 9 -16 4 -23 8 -15 10 30
3 -24 19 -75 21 l-50 2 40 7 c30 5 33 8 13 9 -14 0 -33 4 -42 7 -12 4 -16 0
-16 -15z"/>
<path d="M2448 783 c7 -3 16 -2 19 1 4 3 -2 6 -13 5 -11 0 -14 -3 -6 -6z"/>
<path d="M924 765 c8 -8 25 -15 38 -15 20 1 18 3 -11 15 -42 19 -46 19 -27 0z"/>
<path d="M1260 776 c0 -9 30 -14 35 -6 4 6 -3 10 -14 10 -12 0 -21 -2 -21 -4z"/>
<path d="M998 753 c7 -3 16 -2 19 1 4 3 -2 6 -13 5 -11 0 -14 -3 -6 -6z"/>
<path d="M1314 749 c-3 -5 6 -9 20 -9 31 0 34 6 6 13 -11 3 -23 1 -26 -4z"/>
<path d="M1030 742 c0 -5 14 -7 30 -4 17 2 30 6 30 8 0 2 -13 4 -30 4 -16 0
-30 -4 -30 -8z"/>
<path d="M1470 720 c-12 -8 -11 -10 7 -10 12 0 25 5 28 10 8 13 -15 13 -35 0z"/>
<path d="M3175 445 c-23 -10 -25 -13 -10 -14 11 0 31 6 45 14 32 18 5 19 -35
0z"/>
<path d="M2960 391 c-26 -5 -31 -8 -18 -13 16 -7 127 8 137 18 6 6 -78 2 -119
-5z"/>
<path d="M2098 383 c6 -2 18 -2 25 0 6 3 1 5 -13 5 -14 0 -19 -2 -12 -5z"/>
<path d="M13 353 c-7 -2 -13 -14 -13 -24 0 -11 5 -17 10 -14 6 3 10 1 10 -4 0
-6 -4 -11 -10 -11 -5 0 -10 -7 -10 -15 0 -20 10 -18 44 9 24 20 27 26 17 45
-12 21 -24 24 -48 14z"/>
<path d="M660 350 c0 -5 5 -10 11 -10 5 0 7 5 4 10 -3 6 -8 10 -11 10 -2 0 -4
-4 -4 -10z"/>
<path d="M850 311 c-15 -28 -13 -31 19 -31 33 0 44 11 35 34 -8 22 -41 20 -54
-3z"/>
<path d="M2574 309 c-9 -15 15 -29 52 -29 30 0 51 20 37 34 -11 11 -82 6 -89
-5z"/>
<path d="M4900 295 c0 -8 5 -15 10 -15 6 0 10 7 10 15 0 8 -4 15 -10 15 -5 0
-10 -7 -10 -15z"/>
<path d="M1375 280 c-3 -5 1 -10 9 -10 8 0 18 5 21 10 3 6 -1 10 -9 10 -8 0
-18 -4 -21 -10z"/>
<path d="M1425 280 c3 -5 22 -10 41 -10 19 0 34 5 34 10 0 6 -18 10 -41 10
-24 0 -38 -4 -34 -10z"/>
<path d="M1855 270 c-3 -5 1 -10 9 -10 9 0 16 5 16 10 0 6 -4 10 -9 10 -6 0
-13 -4 -16 -10z"/>
<path d="M4930 253 c0 -14 1 -24 3 -22 1 2 11 14 21 27 19 22 19 22 -2 22 -17
0 -22 -6 -22 -27z"/>
<path d="M770 239 c0 -14 25 -39 39 -39 17 0 13 37 -5 44 -23 9 -34 7 -34 -5z"/>
<path d="M1810 210 c0 -5 11 -10 25 -10 14 0 25 5 25 10 0 6 -11 10 -25 10
-14 0 -25 -4 -25 -10z"/>
<path d="M1025 180 c-4 -6 7 -10 24 -10 17 0 31 5 31 10 0 6 -11 10 -24 10
-14 0 -28 -4 -31 -10z"/>
<path d="M0 41 c0 -25 5 -41 12 -41 6 0 9 3 5 6 -3 3 -2 16 3 29 6 17 5 27 -6
35 -12 11 -14 6 -14 -29z"/>
<path d="M4895 27 c-4 -10 -5 -21 -1 -24 10 -10 18 4 13 24 -4 17 -4 17 -12 0z"/>
</g>
</svg>
